<?xml version="1.0" encoding="UTF-8" standalone="no"?>
<!DOCTYPE svg PUBLIC "-//W3C//DTD SVG 1.1//EN"
 "http://www.w3.org/Graphics/SVG/1.1/DTD/svg11.dtd">
<!-- Generated by graphviz version 2.38.0 (20140413.2041)
 -->
<!-- Title: models_diagram Pages: 1 -->
<svg width="1314pt" height="518pt"
 viewBox="0.00 0.00 1313.54 518.00" xmlns="http://www.w3.org/2000/svg" xmlns:xlink="http://www.w3.org/1999/xlink">
<g id="graph0" class="graph" transform="scale(1 1) rotate(0) translate(4 514)">
<title>models_diagram</title>
<polygon fill="none" stroke="none" points="-4,4 -4,-514 1309.54,-514 1309.54,4 -4,4"/>
<!-- _diagram_info -->
<g id="node1" class="node"><title>_diagram_info</title>
<text text-anchor="start" x="92.5963" y="-495.6" font-family="Times,serif" font-size="13.00">Models diagram</text>
<text text-anchor="start" x="92.5963" y="-481.6" font-family="Times,serif" font-size="13.00">Date: Dec 11 2018 &#45; 13:42</text>
<text text-anchor="start" x="92.5963" y="-467.6" font-family="Times,serif" font-size="13.00">Migration version: 20181207222456</text>
<text text-anchor="start" x="92.5963" y="-453.6" font-family="Times,serif" font-size="13.00">Generated by RailRoady 1.5.3</text>
<text text-anchor="start" x="92.5963" y="-439.6" font-family="Times,serif" font-size="13.00">http://railroady.prestonlee.com</text>
</g>
<!-- Shift -->
<g id="node2" class="node"><title>Shift</title>
<ellipse fill="none" stroke="black" cx="344.596" cy="-471" rx="27.8951" ry="18"/>
<text text-anchor="middle" x="344.596" y="-467.3" font-family="Times,serif" font-size="14.00">Shift</text>
</g>
<!-- PlanShift -->
<g id="node3" class="node"><title>PlanShift</title>
<ellipse fill="none" stroke="black" cx="433.596" cy="-471" rx="43.5923" ry="18"/>
<text text-anchor="middle" x="433.596" y="-467.3" font-family="Times,serif" font-size="14.00">PlanShift</text>
</g>
<!-- WorkedShift -->
<g id="node4" class="node"><title>WorkedShift</title>
<ellipse fill="none" stroke="black" cx="551.596" cy="-471" rx="56.59" ry="18"/>
<text text-anchor="middle" x="551.596" y="-467.3" font-family="Times,serif" font-size="14.00">WorkedShift</text>
</g>
<!-- SellerSale -->
<g id="node5" class="node"><title>SellerSale</title>
<ellipse fill="none" stroke="black" cx="982.596" cy="-90" rx="46.2923" ry="18"/>
<text text-anchor="middle" x="982.596" y="-86.3" font-family="Times,serif" font-size="14.00">SellerSale</text>
</g>
<!-- TargetSale -->
<g id="node6" class="node"><title>TargetSale</title>
<ellipse fill="none" stroke="black" cx="534.596" cy="-162" rx="48.9926" ry="18"/>
<text text-anchor="middle" x="534.596" y="-158.3" font-family="Times,serif" font-size="14.00">TargetSale</text>
</g>
<!-- Cluster -->
<g id="node7" class="node"><title>Cluster</title>
<ellipse fill="none" stroke="black" cx="662.596" cy="-471" rx="36.2938" ry="18"/>
<text text-anchor="middle" x="662.596" y="-467.3" font-family="Times,serif" font-size="14.00">Cluster</text>
</g>
<!-- Store -->
<g id="node8" class="node"><title>Store</title>
<ellipse fill="none" stroke="black" cx="662.596" cy="-378" rx="29.4969" ry="18"/>
<text text-anchor="middle" x="662.596" y="-374.3" font-family="Times,serif" font-size="14.00">Store</text>
</g>
<!-- Cluster&#45;&gt;Store -->
<g id="edge1" class="edge"><title>Cluster&#45;&gt;Store</title>
<path fill="none" stroke="#fd3ff8" d="M662.596,-444.729C662.596,-432.725 662.596,-418.362 662.596,-406.129"/>
<ellipse fill="none" stroke="#fd3ff8" cx="662.596" cy="-448.884" rx="4" ry="4"/>
<polygon fill="#fd3ff8" stroke="#fd3ff8" points="662.596,-406.04 667.096,-396.04 662.596,-401.04 662.596,-396.04 662.596,-396.04 662.596,-396.04 662.596,-401.04 658.096,-396.04 662.596,-406.04 662.596,-406.04"/>
</g>
<!-- PlanSale -->
<g id="node10" class="node"><title>PlanSale</title>
<ellipse fill="none" stroke="black" cx="41.5963" cy="-162" rx="41.6928" ry="18"/>
<text text-anchor="middle" x="41.5963" y="-158.3" font-family="Times,serif" font-size="14.00">PlanSale</text>
</g>
<!-- Store&#45;&gt;PlanSale -->
<g id="edge5" class="edge"><title>Store&#45;&gt;PlanSale</title>
<path fill="none" stroke="#582280" d="M626.63,-370.553C581.116,-361.967 500.578,-345.351 433.596,-324 299.306,-281.194 146.476,-212.291 78.0621,-180.323"/>
<ellipse fill="none" stroke="#582280" cx="630.778" cy="-371.327" rx="4.00001" ry="4.00001"/>
<polygon fill="#582280" stroke="#582280" points="77.6467,-180.128 70.5038,-171.808 73.1198,-178.005 68.593,-175.882 68.593,-175.882 68.593,-175.882 73.1198,-178.005 66.6821,-179.956 77.6467,-180.128 77.6467,-180.128"/>
</g>
<!-- RealSale -->
<g id="node11" class="node"><title>RealSale</title>
<ellipse fill="none" stroke="black" cx="143.596" cy="-162" rx="42.4939" ry="18"/>
<text text-anchor="middle" x="143.596" y="-158.3" font-family="Times,serif" font-size="14.00">RealSale</text>
</g>
<!-- Store&#45;&gt;RealSale -->
<g id="edge6" class="edge"><title>Store&#45;&gt;RealSale</title>
<path fill="none" stroke="#2770b1" d="M630.109,-365.479C601.01,-355.037 557.246,-339.027 519.596,-324 394.505,-274.073 248.374,-209.749 181.047,-179.768"/>
<ellipse fill="none" stroke="#2770b1" cx="634.144" cy="-366.923" rx="4.00001" ry="4.00001"/>
<polygon fill="#2770b1" stroke="#2770b1" points="180.831,-179.672 173.53,-171.49 176.264,-177.636 171.698,-175.6 171.698,-175.6 171.698,-175.6 176.264,-177.636 169.865,-179.71 180.831,-179.672 180.831,-179.672"/>
</g>
<!-- StoreDepartment -->
<g id="node22" class="node"><title>StoreDepartment</title>
<ellipse fill="none" stroke="black" cx="591.596" cy="-234" rx="71.4873" ry="18"/>
<text text-anchor="middle" x="591.596" y="-230.3" font-family="Times,serif" font-size="14.00">StoreDepartment</text>
</g>
<!-- Store&#45;&gt;StoreDepartment -->
<g id="edge2" class="edge"><title>Store&#45;&gt;StoreDepartment</title>
<path fill="none" stroke="#07e660" d="M661.014,-351.953C658.972,-333.371 654.298,-307.914 643.596,-288 637.697,-277.022 628.837,-266.777 620.094,-258.277"/>
<ellipse fill="none" stroke="#07e660" cx="661.398" cy="-355.981" rx="4" ry="4"/>
<polygon fill="#07e660" stroke="#07e660" points="619.865,-258.065 615.571,-247.975 616.192,-254.673 612.518,-251.281 612.518,-251.281 612.518,-251.281 616.192,-254.673 609.466,-254.588 619.865,-258.065 619.865,-258.065"/>
</g>
<!-- Department -->
<g id="node23" class="node"><title>Department</title>
<ellipse fill="none" stroke="black" cx="581.596" cy="-306" rx="52.7911" ry="18"/>
<text text-anchor="middle" x="581.596" y="-302.3" font-family="Times,serif" font-size="14.00">Department</text>
</g>
<!-- Store&#45;&gt;Department -->
<g id="edge3" class="edge"><title>Store&#45;&gt;Department</title>
<path fill="none" stroke="#39ac6d" d="M638.559,-356.227C628.886,-347.868 617.705,-338.205 607.823,-329.665"/>
<polygon fill="#39ac6d" stroke="#39ac6d" points="638.639,-356.296 643.262,-366.239 642.422,-359.565 646.205,-362.834 646.205,-362.834 646.205,-362.834 642.422,-359.565 649.147,-359.43 638.639,-356.296 638.639,-356.296"/>
<polygon fill="#39ac6d" stroke="#39ac6d" points="607.796,-329.642 603.173,-319.699 604.013,-326.373 600.23,-323.103 600.23,-323.103 600.23,-323.103 604.013,-326.373 597.288,-326.508 607.796,-329.642 607.796,-329.642"/>
</g>
<!-- Seller -->
<g id="node27" class="node"><title>Seller</title>
<ellipse fill="none" stroke="black" cx="1030.6" cy="-162" rx="31.3957" ry="18"/>
<text text-anchor="middle" x="1030.6" y="-158.3" font-family="Times,serif" font-size="14.00">Seller</text>
</g>
<!-- Store&#45;&gt;Seller -->
<g id="edge7" class="edge"><title>Store&#45;&gt;Seller</title>
<path fill="none" stroke="#3d36c3" d="M672.89,-352.904C682.435,-333.096 698.362,-305.533 719.596,-288 819.577,-205.449 870.703,-229.36 990.596,-180 992.637,-179.16 994.734,-178.29 996.847,-177.407"/>
<ellipse fill="none" stroke="#3d36c3" cx="671.117" cy="-356.714" rx="4.00002" ry="4.00002"/>
<polygon fill="#3d36c3" stroke="#3d36c3" points="996.877,-177.395 1007.84,-177.665 1001.49,-175.456 1006.09,-173.517 1006.09,-173.517 1006.09,-173.517 1001.49,-175.456 1004.35,-169.369 996.877,-177.395 996.877,-177.395"/>
</g>
<!-- StaffReal -->
<g id="node29" class="node"><title>StaffReal</title>
<ellipse fill="none" stroke="black" cx="772.596" cy="-306" rx="44.393" ry="18"/>
<text text-anchor="middle" x="772.596" y="-302.3" font-family="Times,serif" font-size="14.00">StaffReal</text>
</g>
<!-- Store&#45;&gt;StaffReal -->
<g id="edge4" class="edge"><title>Store&#45;&gt;StaffReal</title>
<path fill="none" stroke="#c9901c" d="M689.279,-360.02C704.864,-350.102 724.621,-337.53 740.984,-327.117"/>
<ellipse fill="none" stroke="#c9901c" cx="685.637" cy="-362.338" rx="4.00002" ry="4.00002"/>
<polygon fill="#c9901c" stroke="#c9901c" points="741.24,-326.954 752.093,-325.382 745.459,-324.269 749.677,-321.585 749.677,-321.585 749.677,-321.585 745.459,-324.269 747.261,-317.789 741.24,-326.954 741.24,-326.954"/>
</g>
<!-- AvailableShift -->
<g id="node30" class="node"><title>AvailableShift</title>
<ellipse fill="none" stroke="black" cx="1108.6" cy="-90" rx="61.99" ry="18"/>
<text text-anchor="middle" x="1108.6" y="-86.3" font-family="Times,serif" font-size="14.00">AvailableShift</text>
</g>
<!-- Store&#45;&gt;AvailableShift -->
<g id="edge8" class="edge"><title>Store&#45;&gt;AvailableShift</title>
<path fill="none" stroke="#052282" d="M698.321,-369.66C777.101,-351.636 966.959,-297.811 1070.6,-180 1086.23,-162.225 1096.17,-137.054 1101.94,-118.014"/>
<ellipse fill="none" stroke="#052282" cx="694.064" cy="-370.614" rx="4.00001" ry="4.00001"/>
<polygon fill="#052282" stroke="#052282" points="1102.01,-117.775 1109.06,-109.378 1103.37,-112.964 1104.73,-108.153 1104.73,-108.153 1104.73,-108.153 1103.37,-112.964 1100.4,-106.928 1102.01,-117.775 1102.01,-117.775"/>
</g>
<!-- Sale -->
<g id="node9" class="node"><title>Sale</title>
<ellipse fill="none" stroke="black" cx="743.596" cy="-471" rx="27" ry="18"/>
<text text-anchor="middle" x="743.596" y="-467.3" font-family="Times,serif" font-size="14.00">Sale</text>
</g>
<!-- SellerShift -->
<g id="node12" class="node"><title>SellerShift</title>
<ellipse fill="none" stroke="black" cx="649.596" cy="-162" rx="48.1917" ry="18"/>
<text text-anchor="middle" x="649.596" y="-158.3" font-family="Times,serif" font-size="14.00">SellerShift</text>
</g>
<!-- StaffingCase -->
<g id="node13" class="node"><title>StaffingCase</title>
<ellipse fill="none" stroke="black" cx="500.596" cy="-90" rx="55.7903" ry="18"/>
<text text-anchor="middle" x="500.596" y="-86.3" font-family="Times,serif" font-size="14.00">StaffingCase</text>
</g>
<!-- DataCase -->
<g id="node14" class="node"><title>DataCase</title>
<ellipse fill="none" stroke="black" cx="759.596" cy="-162" rx="44.393" ry="18"/>
<text text-anchor="middle" x="759.596" y="-158.3" font-family="Times,serif" font-size="14.00">DataCase</text>
</g>
<!-- DataCase&#45;&gt;StaffingCase -->
<g id="edge10" class="edge"><title>DataCase&#45;&gt;StaffingCase</title>
<path fill="none" stroke="#12b84b" d="M718.598,-147.58C714.553,-146.337 710.501,-145.124 706.596,-144 644.441,-126.115 628.216,-124.183 565.596,-108 560.705,-106.736 555.608,-105.413 550.515,-104.087"/>
<ellipse fill="none" stroke="#12b84b" cx="722.51" cy="-148.8" rx="4.00001" ry="4.00001"/>
<ellipse fill="#12b84b" stroke="#12b84b" cx="546.416" cy="-103.019" rx="4.00001" ry="4.00001"/>
</g>
<!-- ReturnCase -->
<g id="node15" class="node"><title>ReturnCase</title>
<ellipse fill="none" stroke="black" cx="626.596" cy="-90" rx="51.9908" ry="18"/>
<text text-anchor="middle" x="626.596" y="-86.3" font-family="Times,serif" font-size="14.00">ReturnCase</text>
</g>
<!-- DataCase&#45;&gt;ReturnCase -->
<g id="edge11" class="edge"><title>DataCase&#45;&gt;ReturnCase</title>
<path fill="none" stroke="#695034" d="M726.333,-143.493C706.415,-133.01 681.143,-119.709 661.022,-109.119"/>
<ellipse fill="none" stroke="#695034" cx="730.097" cy="-145.474" rx="4.00002" ry="4.00002"/>
<ellipse fill="#695034" stroke="#695034" cx="657.402" cy="-107.213" rx="4.00002" ry="4.00002"/>
</g>
<!-- SummaryCase -->
<g id="node16" class="node"><title>SummaryCase</title>
<ellipse fill="none" stroke="black" cx="759.596" cy="-90" rx="63.0888" ry="18"/>
<text text-anchor="middle" x="759.596" y="-86.3" font-family="Times,serif" font-size="14.00">SummaryCase</text>
</g>
<!-- DataCase&#45;&gt;SummaryCase -->
<g id="edge9" class="edge"><title>DataCase&#45;&gt;SummaryCase</title>
<path fill="none" stroke="#66534c" d="M759.596,-135.64C759.596,-130.063 759.596,-124.132 759.596,-118.476"/>
<ellipse fill="none" stroke="#66534c" cx="759.596" cy="-139.697" rx="4" ry="4"/>
<polygon fill="#66534c" stroke="#66534c" points="759.596,-118.104 764.096,-108.104 759.596,-113.104 759.596,-108.104 759.596,-108.104 759.596,-108.104 759.596,-113.104 755.096,-108.104 759.596,-118.104 759.596,-118.104"/>
</g>
<!-- RequestDetail -->
<g id="node17" class="node"><title>RequestDetail</title>
<ellipse fill="none" stroke="black" cx="879.596" cy="-18" rx="60.3893" ry="18"/>
<text text-anchor="middle" x="879.596" y="-14.3" font-family="Times,serif" font-size="14.00">RequestDetail</text>
</g>
<!-- ApplicationRecord -->
<g id="node18" class="node"><title>ApplicationRecord</title>
<ellipse fill="none" stroke="black" cx="865.596" cy="-471" rx="77.1866" ry="18"/>
<text text-anchor="middle" x="865.596" y="-467.3" font-family="Times,serif" font-size="14.00">ApplicationRecord</text>
</g>
<!-- User -->
<g id="node19" class="node"><title>User</title>
<ellipse fill="none" stroke="black" cx="848.596" cy="-162" rx="27.0966" ry="18"/>
<text text-anchor="middle" x="848.596" y="-158.3" font-family="Times,serif" font-size="14.00">User</text>
</g>
<!-- Request -->
<g id="node28" class="node"><title>Request</title>
<ellipse fill="none" stroke="black" cx="879.596" cy="-90" rx="38.9931" ry="18"/>
<text text-anchor="middle" x="879.596" y="-86.3" font-family="Times,serif" font-size="14.00">Request</text>
</g>
<!-- User&#45;&gt;Request -->
<g id="edge12" class="edge"><title>User&#45;&gt;Request</title>
<path fill="none" stroke="#7ba288" d="M859.197,-137.062C862.045,-130.632 865.138,-123.647 868.035,-117.106"/>
<ellipse fill="none" stroke="#7ba288" cx="857.563" cy="-140.754" rx="4.00002" ry="4.00002"/>
<polygon fill="#7ba288" stroke="#7ba288" points="868.038,-117.1 876.202,-109.778 870.062,-112.528 872.087,-107.956 872.087,-107.956 872.087,-107.956 870.062,-112.528 867.973,-106.134 868.038,-117.1 868.038,-117.1"/>
</g>
<!-- TargetProductivity -->
<g id="node20" class="node"><title>TargetProductivity</title>
<ellipse fill="none" stroke="black" cx="1038.6" cy="-471" rx="77.1866" ry="18"/>
<text text-anchor="middle" x="1038.6" y="-467.3" font-family="Times,serif" font-size="14.00">TargetProductivity</text>
</g>
<!-- ShiftBreak -->
<g id="node21" class="node"><title>ShiftBreak</title>
<ellipse fill="none" stroke="black" cx="1182.6" cy="-471" rx="48.9926" ry="18"/>
<text text-anchor="middle" x="1182.6" y="-467.3" font-family="Times,serif" font-size="14.00">ShiftBreak</text>
</g>
<!-- StoreDepartment&#45;&gt;TargetSale -->
<g id="edge22" class="edge"><title>StoreDepartment&#45;&gt;TargetSale</title>
<path fill="none" stroke="#a9b732" d="M572.74,-209.843C566.992,-202.784 560.651,-194.997 554.817,-187.833"/>
<ellipse fill="none" stroke="#a9b732" cx="575.272" cy="-212.953" rx="4.00002" ry="4.00002"/>
<polygon fill="#a9b732" stroke="#a9b732" points="554.582,-187.543 551.757,-176.948 551.425,-183.666 548.267,-179.789 548.267,-179.789 548.267,-179.789 551.425,-183.666 544.778,-182.63 554.582,-187.543 554.582,-187.543"/>
</g>
<!-- StoreDepartment&#45;&gt;PlanSale -->
<g id="edge16" class="edge"><title>StoreDepartment&#45;&gt;PlanSale</title>
<path fill="none" stroke="#bfc26a" d="M513.252,-229.909C414.276,-224.812 239.167,-211.82 92.5963,-180 89.0108,-179.222 85.3237,-178.281 81.651,-177.247"/>
<ellipse fill="none" stroke="#bfc26a" cx="517.421" cy="-230.119" rx="4" ry="4"/>
<polygon fill="#bfc26a" stroke="#bfc26a" points="81.6127,-177.236 73.3458,-170.031 76.8273,-175.787 72.0418,-174.338 72.0418,-174.338 72.0418,-174.338 76.8273,-175.787 70.7378,-178.645 81.6127,-177.236 81.6127,-177.236"/>
</g>
<!-- StoreDepartment&#45;&gt;RealSale -->
<g id="edge15" class="edge"><title>StoreDepartment&#45;&gt;RealSale</title>
<path fill="none" stroke="#677eaa" d="M516.064,-227.195C435.626,-220.022 304.961,-205.519 194.596,-180 191.22,-179.219 187.751,-178.308 184.287,-177.319"/>
<ellipse fill="none" stroke="#677eaa" cx="520.186" cy="-227.558" rx="4" ry="4"/>
<polygon fill="#677eaa" stroke="#677eaa" points="184.183,-177.288 175.927,-170.071 179.4,-175.832 174.616,-174.376 174.616,-174.376 174.616,-174.376 179.4,-175.832 173.306,-178.681 184.183,-177.288 184.183,-177.288"/>
</g>
<!-- StoreDepartment&#45;&gt;SellerShift -->
<g id="edge19" class="edge"><title>StoreDepartment&#45;&gt;SellerShift</title>
<path fill="none" stroke="#3adee5" d="M610.862,-209.748C616.802,-202.579 623.359,-194.666 629.362,-187.421"/>
<ellipse fill="none" stroke="#3adee5" cx="608.189" cy="-212.975" rx="4.00002" ry="4.00002"/>
<polygon fill="#3adee5" stroke="#3adee5" points="629.705,-187.007 639.55,-182.178 632.895,-183.157 636.085,-179.307 636.085,-179.307 636.085,-179.307 632.895,-183.157 632.62,-176.436 629.705,-187.007 629.705,-187.007"/>
</g>
<!-- StoreDepartment&#45;&gt;DataCase -->
<g id="edge17" class="edge"><title>StoreDepartment&#45;&gt;DataCase</title>
<path fill="none" stroke="#eba6dd" d="M634.57,-215.094C660.998,-204.083 694.606,-190.079 720.321,-179.365"/>
<ellipse fill="none" stroke="#eba6dd" cx="630.507" cy="-216.787" rx="4.00001" ry="4.00001"/>
<polygon fill="#eba6dd" stroke="#eba6dd" points="720.528,-179.279 731.489,-179.586 725.143,-177.355 729.759,-175.432 729.759,-175.432 729.759,-175.432 725.143,-177.355 728.028,-171.279 720.528,-179.279 720.528,-179.279"/>
</g>
<!-- StoreDepartment&#45;&gt;User -->
<g id="edge20" class="edge"><title>StoreDepartment&#45;&gt;User</title>
<path fill="none" stroke="#cfc471" d="M655.783,-221.249C700.437,-212.196 760.982,-198.158 812.596,-180 814.455,-179.346 816.345,-178.627 818.238,-177.866"/>
<ellipse fill="none" stroke="#cfc471" cx="651.839" cy="-222.039" rx="4.00001" ry="4.00001"/>
<polygon fill="#cfc471" stroke="#cfc471" points="818.408,-177.792 829.373,-177.937 822.994,-175.801 827.58,-173.809 827.58,-173.809 827.58,-173.809 822.994,-175.801 825.788,-169.682 818.408,-177.792 818.408,-177.792"/>
</g>
<!-- PlanStaff -->
<g id="node24" class="node"><title>PlanStaff</title>
<ellipse fill="none" stroke="black" cx="937.596" cy="-162" rx="43.5923" ry="18"/>
<text text-anchor="middle" x="937.596" y="-158.3" font-family="Times,serif" font-size="14.00">PlanStaff</text>
</g>
<!-- StoreDepartment&#45;&gt;PlanStaff -->
<g id="edge14" class="edge"><title>StoreDepartment&#45;&gt;PlanStaff</title>
<path fill="none" stroke="#86c0dd" d="M656.095,-221.442C740.667,-206.27 879.039,-181.387 884.596,-180 888.182,-179.105 891.88,-178.097 895.576,-177.032"/>
<ellipse fill="none" stroke="#86c0dd" cx="652.022" cy="-222.172" rx="4.00001" ry="4.00001"/>
<polygon fill="#86c0dd" stroke="#86c0dd" points="895.702,-176.994 906.574,-178.419 900.489,-175.552 905.277,-174.11 905.277,-174.11 905.277,-174.11 900.489,-175.552 903.979,-169.801 895.702,-176.994 895.702,-176.994"/>
</g>
<!-- RealStaff -->
<g id="node26" class="node"><title>RealStaff</title>
<ellipse fill="none" stroke="black" cx="247.596" cy="-162" rx="44.393" ry="18"/>
<text text-anchor="middle" x="247.596" y="-158.3" font-family="Times,serif" font-size="14.00">RealStaff</text>
</g>
<!-- StoreDepartment&#45;&gt;RealStaff -->
<g id="edge13" class="edge"><title>StoreDepartment&#45;&gt;RealStaff</title>
<path fill="none" stroke="#9cc01d" d="M523.02,-223.094C463.708,-213.913 375.887,-198.846 300.596,-180 297.165,-179.141 293.63,-178.18 290.093,-177.164"/>
<ellipse fill="none" stroke="#9cc01d" cx="527.242" cy="-223.743" rx="4.00001" ry="4.00001"/>
<polygon fill="#9cc01d" stroke="#9cc01d" points="289.778,-177.069 281.495,-169.883 284.989,-175.631 280.2,-174.192 280.2,-174.192 280.2,-174.192 284.989,-175.631 278.906,-178.502 289.778,-177.069 289.778,-177.069"/>
</g>
<!-- StoreDepartment&#45;&gt;Seller -->
<g id="edge18" class="edge"><title>StoreDepartment&#45;&gt;Seller</title>
<path fill="none" stroke="#dea397" d="M655,-221.117C665.535,-219.297 676.361,-217.52 686.596,-216 821.175,-196.008 859.109,-214.96 990.596,-180 992.934,-179.378 995.314,-178.646 997.689,-177.84"/>
<ellipse fill="none" stroke="#dea397" cx="650.955" cy="-221.824" rx="4.00001" ry="4.00001"/>
<polygon fill="#dea397" stroke="#dea397" points="997.944,-177.743 1008.89,-178.419 1002.62,-175.976 1007.3,-174.209 1007.3,-174.209 1007.3,-174.209 1002.62,-175.976 1005.71,-170 997.944,-177.743 997.944,-177.743"/>
</g>
<!-- TargetProducitivity -->
<g id="node31" class="node"><title>TargetProducitivity</title>
<ellipse fill="none" stroke="black" cx="388.596" cy="-162" rx="79.0865" ry="18"/>
<text text-anchor="middle" x="388.596" y="-158.3" font-family="Times,serif" font-size="14.00">TargetProducitivity</text>
</g>
<!-- StoreDepartment&#45;&gt;TargetProducitivity -->
<g id="edge21" class="edge"><title>StoreDepartment&#45;&gt;TargetProducitivity</title>
<path fill="none" stroke="#f35f0b" d="M543.391,-216.378C512.158,-205.607 471.526,-191.596 439.728,-180.632"/>
<ellipse fill="none" stroke="#f35f0b" cx="547.223" cy="-217.699" rx="4.00001" ry="4.00001"/>
<polygon fill="#f35f0b" stroke="#f35f0b" points="439.617,-180.593 431.63,-173.079 434.89,-178.963 430.163,-177.333 430.163,-177.333 430.163,-177.333 434.89,-178.963 428.696,-181.588 439.617,-180.593 439.617,-180.593"/>
</g>
<!-- Department&#45;&gt;StoreDepartment -->
<g id="edge23" class="edge"><title>Department&#45;&gt;StoreDepartment</title>
<path fill="none" stroke="#8fa560" d="M585.219,-279.64C586.036,-273.92 586.907,-267.828 587.733,-262.042"/>
<ellipse fill="none" stroke="#8fa560" cx="584.634" cy="-283.737" rx="4.00001" ry="4.00001"/>
<polygon fill="#8fa560" stroke="#8fa560" points="587.739,-262.004 593.608,-252.741 588.446,-257.054 589.153,-252.104 589.153,-252.104 589.153,-252.104 588.446,-257.054 584.698,-251.468 587.739,-262.004 587.739,-262.004"/>
</g>
<!-- Staff -->
<g id="node25" class="node"><title>Staff</title>
<ellipse fill="none" stroke="black" cx="1277.6" cy="-471" rx="27.8951" ry="18"/>
<text text-anchor="middle" x="1277.6" y="-467.3" font-family="Times,serif" font-size="14.00">Staff</text>
</g>
<!-- Seller&#45;&gt;SellerSale -->
<g id="edge25" class="edge"><title>Seller&#45;&gt;SellerSale</title>
<path fill="none" stroke="#cce28c" d="M1015.17,-138.509C1010.37,-131.496 1005.03,-123.713 1000.09,-116.51"/>
<ellipse fill="none" stroke="#cce28c" cx="1017.44" cy="-141.817" rx="4.00002" ry="4.00002"/>
<polygon fill="#cce28c" stroke="#cce28c" points="999.77,-116.045 997.826,-105.252 996.942,-111.921 994.114,-107.797 994.114,-107.797 994.114,-107.797 996.942,-111.921 990.403,-110.342 999.77,-116.045 999.77,-116.045"/>
</g>
<!-- Seller&#45;&gt;AvailableShift -->
<g id="edge24" class="edge"><title>Seller&#45;&gt;AvailableShift</title>
<path fill="none" stroke="#3ba4ce" d="M1053.03,-140.871C1062.25,-132.591 1073,-122.948 1082.57,-114.36"/>
<ellipse fill="none" stroke="#3ba4ce" cx="1049.73" cy="-143.824" rx="4.00002" ry="4.00002"/>
<polygon fill="#3ba4ce" stroke="#3ba4ce" points="1082.83,-114.127 1093.27,-110.797 1086.55,-110.787 1090.27,-107.448 1090.27,-107.448 1090.27,-107.448 1086.55,-110.787 1087.26,-104.099 1082.83,-114.127 1082.83,-114.127"/>
</g>
<!-- Request&#45;&gt;RequestDetail -->
<g id="edge26" class="edge"><title>Request&#45;&gt;RequestDetail</title>
<path fill="none" stroke="#45c154" d="M879.596,-63.6398C879.596,-58.0629 879.596,-52.1319 879.596,-46.4761"/>
<ellipse fill="none" stroke="#45c154" cx="879.596" cy="-67.6966" rx="4" ry="4"/>
<polygon fill="#45c154" stroke="#45c154" points="879.596,-46.1043 884.096,-36.1043 879.596,-41.1043 879.596,-36.1043 879.596,-36.1043 879.596,-36.1043 879.596,-41.1043 875.096,-36.1044 879.596,-46.1043 879.596,-46.1043"/>
</g>
</g>
</svg>
