<?xml version="1.0" encoding="utf-8"?>
<!-- Generator: Adobe Illustrator 19.1.0, SVG Export Plug-In . SVG Version: 6.00 Build 0)  -->
<svg version="1.2" baseProfile="tiny" xmlns="http://www.w3.org/2000/svg" xmlns:xlink="http://www.w3.org/1999/xlink" x="0px"
	 y="0px" width="64px" height="64px" viewBox="0 0 64 64" xml:space="preserve">
<g id="_x36_4px_boxes">
	<rect fill="none" width="64" height="64"/>
</g>
<g id="Production">
	<g>
		<path fill="#a0adc4" d="M32.0005,34.9996c7.9814,0,14.0002-7.2343,14.0002-16.828C46.0007,10.4893,39.5895,4,32.0005,4
			C24.4113,4,18,10.4893,18,18.1716C18,27.7654,24.0188,34.9996,32.0005,34.9996z M32.0005,8.8955c4.8418,0,9.09,4.328,9.09,9.2625
			c0,6.8105-3.9083,11.9463-9.09,11.9463c-5.1829,0-9.0901-5.1357-9.0901-11.9463C22.9104,13.2235,27.1584,8.8955,32.0005,8.8955z
			 M58.2545,49.6235c-0.4424-3.7783-2.6954-6.4471-6.1741-7.2983c-1.1749-0.2899-5.0558-1.0818-7.17-1.5098L42.8752,35
			c-1.3069,1.1206-2.7561,2.0332-4.3292,2.7063l2.6025,7.4342l1.3916,0.2782c9.0825,1.8185,10.3949,1.595,10.7679,4.7827
			c0.1797,1.5459,0.4775,5.814,0.7051,9.7986h4.9883C58.769,56.0154,58.4526,51.3279,58.2545,49.6235z M36.5167,47.2795
			l-4.5704-7.2227l-4.5706,7.2227l2.5491,2.3588L27.2615,60h9.3695l-2.6632-10.3617L36.5167,47.2795z M19.0913,40.8154
			c-2.1133,0.428-5.9934,1.2198-7.1643,1.5088c-3.4845,0.8522-5.7374,3.521-6.1799,7.3013C5.5488,51.3279,5.2324,56.0154,5,60
			h4.9884c0.6371-9.9617,0.3962-12.1577,3.1271-12.824c1.2002-0.2976,5.9836-1.2776,8.3459-1.7502l1.3916-0.2817l2.6027-7.436
			c-1.5723-0.6731-3.0226-1.5864-4.3282-2.7072L19.0913,40.8154z"/>
	</g>
</g>
</svg>
