<?xml version="1.0" encoding="utf-8"?>
<!-- Generator: Adobe Illustrator 16.0.4, SVG Export Plug-In . SVG Version: 6.00 Build 0)  -->
<!DOCTYPE svg PUBLIC "-//W3C//DTD SVG 1.1//EN" "http://www.w3.org/Graphics/SVG/1.1/DTD/svg11.dtd">
<svg version="1.1" id="Capa_1" xmlns="http://www.w3.org/2000/svg" xmlns:xlink="http://www.w3.org/1999/xlink" x="0px" y="0px"
	 width="64px" height="64px" viewBox="0 0 64 64" enable-background="new 0 0 64 64" xml:space="preserve">
<g id="_x36_4px_boxes">
	<rect fill="none" width="64" height="64"/>
</g>
<g id="Production">
	<g>
		<path fill="#A0ADC4" d="M58.736,40l-7.075-19H44v-4h9V2H27v15h12c0,6.667,0,2.333,0,9h9.188l5.213,14H10.599l5.213-14H35v-5
			H12.339L5.263,40H3v22h58V40H58.736z M32,12V7h16v5H32z M56,57H8V45h48V57z M30,55h4v-2.779C36.053,50.372,34.727,47,32,47
			c-2.729,0-4.052,3.373-2,5.221V55z M36,38c1.104,0,2-0.896,2-2s-0.896-2-2-2s-2,0.896-2,2S34.896,38,36,38z M40,28
			c-1.104,0-2,0.896-2,2s0.896,2,2,2s2-0.896,2-2S41.104,28,40,28z M18,36c0,1.104,0.896,2,2,2s2-0.896,2-2s-0.896-2-2-2
			S18,34.896,18,36z M44,38c1.104,0,2-0.896,2-2s-0.896-2-2-2s-2,0.896-2,2S42.896,38,44,38z M28,38c1.104,0,2-0.896,2-2
			s-0.896-2-2-2s-2,0.896-2,2S26.896,38,28,38z M32,28c-1.104,0-2,0.896-2,2s0.896,2,2,2s2-0.896,2-2S33.104,28,32,28z M24,28
			c-1.104,0-2,0.896-2,2s0.896,2,2,2s2-0.896,2-2S25.104,28,24,28z"/>
	</g>
</g>
</svg>
