<?xml version="1.0" encoding="utf-8"?>
<!-- Generator: Adobe Illustrator 16.0.0, SVG Export Plug-In . SVG Version: 6.00 Build 0)  -->
<!DOCTYPE svg PUBLIC "-//W3C//DTD SVG 1.1//EN" "http://www.w3.org/Graphics/SVG/1.1/DTD/svg11.dtd">
<svg version="1.1" id="Layer_1" xmlns="http://www.w3.org/2000/svg" xmlns:xlink="http://www.w3.org/1999/xlink" x="0px" y="0px"
	 width="24px" height="24px" viewBox="0 0 24 24" enable-background="new 0 0 24 24" xml:space="preserve">
<g id="Row_5_1_">
</g>
<g id="Row_4_1_">
</g>
<g id="Row_3_1_">
	<g id="finance_presentation">
		<g>
			<path fill="#263238" d="M22,2h-9V1c0-0.553-0.448-1-1-1s-1,0.447-1,1v1H2C1.448,2,1,2.447,1,3s0.448,1,1,1h1v11
				c0,0.553,0.448,1,1,1h7v0.586l-5.707,5.707C5.112,22.475,5,22.725,5,23c0,0.553,0.448,1,1,1c0.276,0,0.526-0.111,0.707-0.293
				L11,19.414V23c0,0.553,0.448,1,1,1s1-0.447,1-1v-3.586l4.293,4.293C17.475,23.889,17.725,24,18,24c0.552,0,1-0.447,1-1
				c0-0.275-0.111-0.525-0.293-0.707L13,16.586V16h7c0.552,0,1-0.447,1-1V4h1c0.552,0,1-0.447,1-1S22.552,2,22,2z M19,14H5V4h14V14z
				 M7,13h10c0.552,0,1-0.447,1-1c0-0.553-0.448-1-1-1V6c0-0.553-0.448-1-1-1s-1,0.447-1,1v5h-2V8c0-0.553-0.448-1-1-1s-1,0.447-1,1
				v3H9v-1c0-0.553-0.448-1-1-1s-1,0.447-1,1v1c-0.552,0-1,0.447-1,1C6,12.553,6.448,13,7,13z"/>
		</g>
	</g>
</g>
<g id="Row_2_1_">
</g>
<g id="Row_1_1_">
</g>
</svg>
