<?xml version="1.0" encoding="utf-8"?>
<!-- Generator: Adobe Illustrator 19.1.0, SVG Export Plug-In . SVG Version: 6.00 Build 0)  -->
<svg version="1.2" baseProfile="tiny" xmlns="http://www.w3.org/2000/svg" xmlns:xlink="http://www.w3.org/1999/xlink" x="0px"
	 y="0px" width="64px" height="64px" viewBox="0 0 64 64" xml:space="preserve">
<g id="_x36_4px_boxes">
	<rect fill="none" width="64" height="64"/>
</g>
<g id="Production">
	<g>
		<path fill="#a0adc4" d="M35,11.9974v5.0013c17-0.4355,25.3848,19.7371,13.5422,31.5562
			c-6.2244,6.2143-14.0947,5.4481-13.095,5.4481c-9.8506,0-18.4995-8.0275-18.4995-18.4872c0-0.1677,0.0154-0.4712,0.0203-0.4712
			c-5.6296,0-5.0247-0.2474-5.0247,0.4434c-0.002,13.0747,10.6206,23.5042,23.4893,23.5042
			c12.5913,0,23.5273-10.2385,23.5251-23.5042C58.9578,22.087,48,11.738,35,11.9974z M31,5.2656
			C17.0769,3.7965,3.7969,15.0879,5.1982,31H31V5.2656z M26.0273,26.0275H10.2256c1.106-7.9561,7.8457-14.6541,15.8018-15.7557
			V26.0275z"/>
	</g>
</g>
</svg>
