<?xml version="1.0" encoding="utf-8"?>
<!-- Generator: Adobe Illustrator 19.1.0, SVG Export Plug-In . SVG Version: 6.00 Build 0)  -->
<svg version="1.2" baseProfile="tiny" xmlns="http://www.w3.org/2000/svg" xmlns:xlink="http://www.w3.org/1999/xlink" x="0px"
	 y="0px" width="64px" height="64px" viewBox="0 0 64 64" xml:space="preserve">
<g id="_x36_4px_boxes">
	<rect fill="none" width="64" height="64"/>
</g>
<g id="Production">
	<g>
		<path fill="#a0adc4" d="M20,33h23v-5H20V33z M29,47h14v-5H29V47z M46.6663,3.8569l-5.1777-1.933l-5.002,1.8681l-5.0011-1.8681
			L26.4849,3.792l-5.0004-1.8681l-5.1661,1.933L9,2.1841v57.0745l7.4922,2.8022l4.9961-1.8681l4.998,1.8681l4.9993-1.8681
			l4.9995,1.8681l5-1.8681l5.0073,1.8681L54,59.2587V2.1841L46.6663,3.8569z M49,55.789l-2.5076,0.934l-5.0039-1.8681l-5.002,1.8681
			l-5.0011-1.8681l-5.0006,1.8681l-5.0004-1.8681l-4.9923,1.8681L14,55.789V8.4545l2.666,0.6104l4.8223-1.8032l4.998,1.8681
			l4.9993-1.8681l4.9995,1.8681l5-1.8681l4.8336,1.8032L49,8.4545V55.789z M20,24h23v-5H20V24z"/>
	</g>
</g>
</svg>
