<?xml version="1.0" encoding="utf-8"?>
<!-- Generator: Adobe Illustrator 19.1.0, SVG Export Plug-In . SVG Version: 6.00 Build 0)  -->
<svg version="1.2" baseProfile="tiny" xmlns="http://www.w3.org/2000/svg" xmlns:xlink="http://www.w3.org/1999/xlink" x="0px"
	 y="0px" width="64px" height="64px" viewBox="0 0 64 64" xml:space="preserve">
<g id="_x36_4px_boxes">
	<rect fill="none" width="64" height="64"/>
</g>
<g id="Production">
	<g>
		<path fill="#a0adc4" d="M24,37v7h5v-7H24z M44,46.4893C44,48.4189,42.3491,50,40.4194,50H38V17h-5v33h-9.5811
			C21.4893,50,20,48.4189,20,46.4893V17h-5c0,8.4809,0,12.4442,0,14.1464c0,0.8568,0,1.1414,0,1.1393c0,1.7064,0,5.6848,0,14.2036
			C15,51.1763,18.7317,55,23.4189,55h17.0005C45.1064,55,49,51.1763,49,46.4893C49,32.6331,49,31,49,17h-5V46.4893z M51.4197,8
			H12.4185C8.8345,8,6,10.9057,6,14.4897v10.9999c0,3.067,2,5.6384,5,6.3182c0-10.9423,0-6.5934,0-17.3181
			C11,13.6625,11.5913,13,12.4185,13c4.8545,0,34.1584,0,39.0012,0C52.2468,13,53,13.6625,53,14.4897c0,12.454,0,4.0571,0,17.3181
			c3-0.6799,5-3.2513,5-6.3182V14.4897C58,10.9057,55.0039,8,51.4197,8z"/>
	</g>
</g>
</svg>
