<?xml version="1.0" encoding="utf-8"?>
<!-- Generator: Adobe Illustrator 19.1.0, SVG Export Plug-In . SVG Version: 6.00 Build 0)  -->
<svg version="1.2" baseProfile="tiny" xmlns="http://www.w3.org/2000/svg" xmlns:xlink="http://www.w3.org/1999/xlink" x="0px"
	 y="0px" width="64px" height="64px" viewBox="0 0 64 64" xml:space="preserve">
<g id="_x36_4px_boxes">
	<rect fill="none" width="64" height="64"/>
</g>
<g id="Production">
	<g>
		<path fill="#a0adc4" d="M61.6344,55.3776l-3.2936-3.2938c1.4598-6.4755-0.4815-13.2758-5.2219-18.0155L27.3348,8.3855
			C20.2067,1.256,8.0677,6.1772,7.7728,16.15L4.158,19.7645c-2.9161,2.9164-2.9161,7.661,0,10.5775l15.1629,15.1623l3.5258-3.5256
			L7.6838,26.8163c-0.972-0.972-0.972-2.5541,0-3.5257c2.2625-2.2621,1.223-1.2227,5.2538-5.2534
			c-1.5598-6.4084,6.2891-10.7095,10.8743-6.1227L34.8575,22.917l-9.1679,9.1675L15.09,21.5267
			c-1.0515,1.0515-1.457,1.4569-1.6022,1.6022c-0.0482,0.0482-0.0767,0.0767-0.0787,0.0787
			c-0.1626,0.1625-0.6273,0.6273-1.8451,1.845l25.3382,25.2386c4.845,4.8455,11.5854,6.6064,17.848,5.2534
			c3.5225,3.5226,3.7946,4.0892,5.1214,4.0892C62.073,59.6337,63.2103,56.9526,61.6344,55.3776z M53.5377,50.7061
			c-0.9496,0.1943-1.9168,0.2922-2.8878,0.2922c0.9973,0-5.3277,0.6608-10.2249-4.2361L29.2222,35.6033l9.168-9.1675l11.2058,11.162
			C53.0497,41.051,54.5059,45.9796,53.5377,50.7061z"/>
	</g>
</g>
</svg>
