<?xml version="1.0" encoding="utf-8"?>
<!-- Generator: Adobe Illustrator 19.1.0, SVG Export Plug-In . SVG Version: 6.00 Build 0)  -->
<svg version="1.2" baseProfile="tiny" xmlns="http://www.w3.org/2000/svg" xmlns:xlink="http://www.w3.org/1999/xlink" x="0px"
	 y="0px" width="64px" height="64px" viewBox="0 0 64 64" xml:space="preserve">
<g id="_x36_4px_boxes">
	<rect fill="none" width="64" height="64"/>
</g>
<g id="Production">
	<g>
		<path fill="#a0adc4" d="M32,14c-1.6567,0-3,1.3431-3,3s1.3433,3,3,3s3-1.3431,3-3S33.6567,14,32,14z M59,28V16.917L32,3.6926
			L5,16.917V28h5v17H5v15h54V45h-5V28H59z M54,55H10v-5h5c0-11,0-13,0-22h8v17h-4v5h9c0-11,0-13,0-22h8v17h-4v5h9c0-11,0-12,0-22h8
			v17h-4v5h9V55z M10,23v-2.9639L32,9.2609l22,10.7753V23H10z"/>
	</g>
</g>
</svg>
