<?xml version="1.0" encoding="utf-8"?>
<!-- Generator: Adobe Illustrator 19.1.0, SVG Export Plug-In . SVG Version: 6.00 Build 0)  -->
<svg version="1.2" baseProfile="tiny" xmlns="http://www.w3.org/2000/svg" xmlns:xlink="http://www.w3.org/1999/xlink" x="0px"
	 y="0px" width="64px" height="64px" viewBox="0 0 64 64" xml:space="preserve">
<g id="_x36_4px_boxes">
	<rect fill="none" width="64" height="64"/>
</g>
<g id="Production">
	<g>
		<path fill="#a0adc4" d="M54,10H2v34h52V10z M49,39H7V15h42V39z M27.9119,34.9894c4.4111,0,8.0002-3.5888,8.0002-7.9999
			c0-4.4111-3.5891-7.9999-8.0002-7.9999c-4.4114,0-8.0002,3.5888-8.0002,7.9999C19.9116,31.4006,23.5005,34.9894,27.9119,34.9894z
			 M27.9119,23.9896c1.6543,0,3,1.3457,3,2.9999c0,1.6543-1.3457,3-3,3c-1.6545,0-3.0002-1.3457-3.0002-3
			C24.9116,25.3353,26.2573,23.9896,27.9119,23.9896z M44.9121,27c0-4-6-4-6,0S44.9121,31,44.9121,27z M58,17v31H9v5h54V17H58z
			 M16.9114,27c0-4-6-4-6,0S16.9114,31,16.9114,27z"/>
	</g>
</g>
</svg>
