<?xml version="1.0" encoding="utf-8"?>
<!-- Generator: Adobe Illustrator 19.1.0, SVG Export Plug-In . SVG Version: 6.00 Build 0)  -->
<svg version="1.2" baseProfile="tiny" xmlns="http://www.w3.org/2000/svg" xmlns:xlink="http://www.w3.org/1999/xlink" x="0px"
	 y="0px" width="64px" height="64px" viewBox="0 0 64 64" xml:space="preserve">
<g id="_x36_4px_boxes">
	<rect fill="none" width="64" height="64"/>
</g>
<g id="Production">
	<g>
		<path fill="#a0adc4" d="M32,43c-1.6572,0-3,1.3428-3,3c0,1.6572,1.3428,3,3,3s3-1.3428,3-3C35,44.3428,33.6572,43,32,43z M32,34
			c-1.6572,0-3,1.3428-3,3c0,1.6572,1.3428,3,3,3s3-1.3428,3-3C35,35.3428,33.6572,34,32,34z M32,25c-1.6572,0-3,1.3428-3,3
			c0,1.6572,1.3428,3,3,3s3-1.3428,3-3C35,26.3428,33.6572,25,32,25z M23,34c-1.6572,0-3,1.3428-3,3c0,1.6572,1.3428,3,3,3
			s3-1.3428,3-3C26,35.3428,24.6572,34,23,34z M23,25c-1.6572,0-3,1.3428-3,3c0,1.6572,1.3428,3,3,3s3-1.3428,3-3
			C26,26.3428,24.6572,25,23,25z M23,43c-1.6572,0-3,1.3428-3,3c0,1.6572,1.3428,3,3,3s3-1.3428,3-3C26,44.3428,24.6572,43,23,43z
			 M48.5,4h-33C11.916,4,9,6.916,9,10.5v43c0,3.584,2.916,6.5,6.5,6.5h33c3.584,0,6.5-2.916,6.5-6.5v-43C55,6.916,52.084,4,48.5,4z
			 M50,53.5c0,0.813-0.687,1.5-1.5,1.5h-33c-0.813,0-1.5-0.687-1.5-1.5v-43C14,9.687,14.687,9,15.5,9h33c0.813,0,1.5,0.687,1.5,1.5
			V53.5z M20,20h24v-5H20V20z M41,34c-1.6572,0-3,1.3428-3,3c0,1.6572,1.3428,3,3,3s3-1.3428,3-3C44,35.3428,42.6572,34,41,34z
			 M41,43c-1.6572,0-3,1.3428-3,3c0,1.6572,1.3428,3,3,3s3-1.3428,3-3C44,44.3428,42.6572,43,41,43z M41,25c-1.6572,0-3,1.3428-3,3
			c0,1.6572,1.3428,3,3,3s3-1.3428,3-3C44,26.3428,42.6572,25,41,25z"/>
	</g>
</g>
</svg>
