<?xml version="1.0" encoding="utf-8"?>
<!-- Generator: Adobe Illustrator 16.0.4, SVG Export Plug-In . SVG Version: 6.00 Build 0)  -->
<!DOCTYPE svg PUBLIC "-//W3C//DTD SVG 1.1//EN" "http://www.w3.org/Graphics/SVG/1.1/DTD/svg11.dtd">
<svg version="1.1" id="Capa_1" xmlns="http://www.w3.org/2000/svg" xmlns:xlink="http://www.w3.org/1999/xlink" x="0px" y="0px"
	 width="64px" height="64px" viewBox="0 0 64 64" enable-background="new 0 0 64 64" xml:space="preserve">
<g id="_x36_4px_boxes">
	<rect fill="none" width="64" height="64"/>
</g>
<g id="Production">
	<g>
		<path fill="#A0ADC4" d="M56.216,21.213C51.559,25.87,36.973,40.452,32.205,45.22l-9.261-11.784l-3.932,3.09l12.752,16.216
			L48,36.516V57H16c0-9,0-35,0-44h-5v49h42V31.516l6.757-6.768C57.932,22.923,58.701,23.699,56.216,21.213z M23.477,22h17
			C42.407,22,44,20.411,44,18.481V18h4v5.789l5-5V13h-9v-1.519C44,9.551,42.407,8,40.478,8h-0.753C37.667,0,26.292,0,24.23,8h-0.753
			C21.547,8,20,9.551,20,11.481c0,0.025,0,0.045,0,0.07c0,0.777,0,1.032,0,1.023c0,0.123,0,0.255,0,0.407c0,5.579,0,3.381,0,5.5
			C20,20.411,21.547,22,23.477,22z M25,13h4.25c-0.017,0-0.273-2.83-0.273-3.01c0-1.654,1.346-3.004,3-3.004
			c1.789,0,3.156,1.566,2.986,3.271L34.704,13H39v4H25V13z"/>
	</g>
</g>
</svg>
