<?xml version="1.0" encoding="utf-8"?>
<!-- Generator: Adobe Illustrator 19.1.0, SVG Export Plug-In . SVG Version: 6.00 Build 0)  -->
<svg version="1.2" baseProfile="tiny" xmlns="http://www.w3.org/2000/svg" xmlns:xlink="http://www.w3.org/1999/xlink" x="0px"
	 y="0px" width="64px" height="64px" viewBox="0 0 64 64" xml:space="preserve">
<g id="_x36_4px_boxes">
	<rect fill="none" width="64" height="64"/>
</g>
<g id="Production">
	<g>
		<path fill="#a0adc4" d="M51.4998,12H12.5002C7.8057,12,4,15.8055,4,20.4999v22.0002C4,47.1945,7.8057,51,12.5002,51h38.9995
			C56.1943,51,60,47.1945,60,42.5001V20.4999C60,15.8055,56.1943,12,51.4998,12z M55,42.4902C55,44.42,53.3423,46,51.4126,46
			H12.4114C10.4814,46,9,44.42,9,42.4902V29h46V42.4902z M55,24H9v-3.5095C9,18.561,10.4814,17,12.4114,17h39.0012
			C53.3423,17,55,18.561,55,20.4905V24z M24,35h-9v5h9V35z"/>
	</g>
</g>
</svg>
