<?xml version="1.0" encoding="utf-8"?>
<!-- Generator: Adobe Illustrator 19.1.0, SVG Export Plug-In . SVG Version: 6.00 Build 0)  -->
<svg version="1.2" baseProfile="tiny" xmlns="http://www.w3.org/2000/svg" xmlns:xlink="http://www.w3.org/1999/xlink" x="0px"
	 y="0px" width="64px" height="64px" viewBox="0 0 64 64" xml:space="preserve">
<g id="_x36_4px_boxes">
	<rect fill="none" width="64" height="64"/>
</g>
<g id="Production">
	<g>
		<path fill="#a0adc4" d="M53.1844,43.0615l-8.1497-12.8058c0.6082-0.9383,0.9648-2.0546,0.9648-3.2558
			c0-3.3137-2.6864-5.9999-6.0002-5.9999c-4.0074,0-6.9087,3.8685-5.7434,7.7334l-8.8236,7.7851
			c-0.7894-0.3511-1.6205-0.5295-2.5453-0.513l-8.5847-17.8302C17.9801,14.3854,15.2963,8,9.9987,8
			c-3.314,0-6.0002,2.6863-6.0002,5.9999c0,3.1864,2.4861,5.7856,5.6234,5.9809l8.7589,18.1894
			c-3.207,3.863-0.4948,9.8293,4.6182,9.8293c4.0144,0,6.9062-3.8763,5.7434-7.7334l8.8235-7.7852
			c0.995,0.4425,2.0757,0.6168,3.249,0.4568l8.1494,12.8059c-2.5671,3.9622,0.2666,9.2557,5.0356,9.2557
			c3.3137,0,6.0001-2.6863,6.0001-5.9999C60,45.4168,56.8551,42.5611,53.1844,43.0615z"/>
	</g>
</g>
</svg>
