<?xml version="1.0" encoding="utf-8"?>
<!-- Generator: Adobe Illustrator 16.0.0, SVG Export Plug-In . SVG Version: 6.00 Build 0)  -->
<!DOCTYPE svg PUBLIC "-//W3C//DTD SVG 1.1//EN" "http://www.w3.org/Graphics/SVG/1.1/DTD/svg11.dtd">
<svg version="1.1" id="Layer_1" xmlns="http://www.w3.org/2000/svg" xmlns:xlink="http://www.w3.org/1999/xlink" x="0px" y="0px"
	 width="24px" height="24px" viewBox="0 0 24 24" enable-background="new 0 0 24 24" xml:space="preserve">
<g id="Row_5_1_">
</g>
<g id="Row_4_1_">
</g>
<g id="Row_3_1_">
</g>
<g id="Row_2_1_">
</g>
<g id="Row_1_1_">
	<g id="graph">
		<g>
			<path fill="#263238" d="M6,19c0.421,0,0.778-0.262,0.925-0.63l0.003,0.001l1.437-3.592l0.928,0.928C9.474,15.889,9.724,16,10,16
				c0.391,0,0.721-0.23,0.885-0.559l0.009,0.006l1.379-2.76l1.019,1.02C13.475,13.889,13.725,14,14,14
				c0.468,0,0.843-0.328,0.952-0.762l0.019,0.004l2.324-6.199l1.998,2.664C19.475,9.888,19.725,10,20,10
				c0.391,0,0.721-0.23,0.885-0.558l0.01,0.005l3-6l-0.01-0.005C23.953,3.308,24,3.161,24,3c0-0.553-0.448-1-1-1
				c-0.391,0-0.721,0.23-0.885,0.558l-0.01-0.005l-2.28,4.563l-2.117-2.822C17.525,4.112,17.275,4,17,4
				c-0.468,0-0.843,0.328-0.952,0.762l-0.019-0.004L13.613,11.2l-0.906-0.907C12.525,10.112,12.276,10,12,10
				c-0.391,0-0.721,0.23-0.885,0.558l-0.009-0.005l-1.379,2.759l-1.019-1.02C8.526,12.112,8.276,12,8,12
				c-0.421,0-0.778,0.262-0.925,0.63l-0.003-0.001l-1.993,4.98v0.002l-0.007,0.018l0.003,0.001C5.029,17.745,5,17.869,5,18
				C5,18.553,5.448,19,6,19z M23,21H3V1c0-0.553-0.448-1-1-1S1,0.447,1,1C0.448,1,0,1.447,0,2s0.448,1,1,1v2C0.448,5,0,5.447,0,6
				s0.448,1,1,1v2c-0.552,0-1,0.447-1,1s0.448,1,1,1v2c-0.552,0-1,0.447-1,1s0.448,1,1,1v2c-0.552,0-1,0.447-1,1s0.448,1,1,1v2
				c-0.552,0-1,0.447-1,1s0.448,1,1,1c0,0.553,0.448,1,1,1s1-0.447,1-1h2c0,0.553,0.448,1,1,1s1-0.447,1-1h2c0,0.553,0.448,1,1,1
				s1-0.447,1-1h2c0,0.553,0.448,1,1,1s1-0.447,1-1h2c0,0.553,0.448,1,1,1s1-0.447,1-1h2c0,0.553,0.448,1,1,1s1-0.447,1-1
				c0.552,0,1-0.447,1-1S23.552,21,23,21z"/>
		</g>
	</g>
</g>
</svg>
