<?xml version="1.0" encoding="utf-8"?>
<!-- Generator: Adobe Illustrator 16.0.0, SVG Export Plug-In . SVG Version: 6.00 Build 0)  -->
<!DOCTYPE svg PUBLIC "-//W3C//DTD SVG 1.1//EN" "http://www.w3.org/Graphics/SVG/1.1/DTD/svg11.dtd">
<svg version="1.1" id="Layer_1" xmlns="http://www.w3.org/2000/svg" xmlns:xlink="http://www.w3.org/1999/xlink" x="0px" y="0px"
	 width="24px" height="24px" viewBox="0 0 24 24" enable-background="new 0 0 24 24" xml:space="preserve">
<g id="Row_5_1_">
</g>
<g id="Row_4_1_">
	<g id="graph_timeline">
		<g>
			<path fill="#263238" d="M23,0H1C0.447,0,0,0.447,0,1v22c0,0.553,0.447,1,1,1h22c0.553,0,1-0.447,1-1V1C24,0.447,23.553,0,23,0z
				 M14,22H2V2h12v11.184c-0.495,0.176-0.887,0.508-0.854,0.482l-2.859,1.869l-2.43-4.05C7.857,11.485,7.688,11,7,11
				c-0.689,0-0.857,0.485-0.857,0.485l-3,5c0,0-0.143,0.14-0.143,0.516c0,0.553,0.447,1,1,1c0.363,0,0.668-0.204,0.843-0.494
				L7,13.943l2.157,3.563C9.332,17.796,9.637,18,10,18c0.225,0,0.423-0.088,0.59-0.214l1.526-1.06
				c0.247,0.972,0.948,1.756,1.884,2.09V22z M15,17c-0.553,0-1-0.447-1-1s0.447-1,1-1s1,0.447,1,1S15.553,17,15,17z M22,22h-6
				v-3.184c1.088-0.387,1.861-1.383,1.962-2.576l2.99-8.002C20.973,8.159,21,8.084,21,8c0-0.553-0.447-1-1-1
				c-0.852,0-0.971,0.758-0.971,0.758l-2.204,5.879c-0.249-0.189-0.524-0.346-0.825-0.453V2h6V22z"/>
		</g>
	</g>
</g>
<g id="Row_3_1_">
</g>
<g id="Row_2_1_">
</g>
<g id="Row_1_1_">
</g>
</svg>
