<?xml version="1.0" encoding="utf-8"?>
<!-- Generator: Adobe Illustrator 16.0.4, SVG Export Plug-In . SVG Version: 6.00 Build 0)  -->
<!DOCTYPE svg PUBLIC "-//W3C//DTD SVG 1.1//EN" "http://www.w3.org/Graphics/SVG/1.1/DTD/svg11.dtd">
<svg version="1.1" id="Capa_1" xmlns="http://www.w3.org/2000/svg" xmlns:xlink="http://www.w3.org/1999/xlink" x="0px" y="0px"
	 width="64px" height="64px" viewBox="0 0 64 64" enable-background="new 0 0 64 64" xml:space="preserve">
<g id="_x36_4px_boxes">
	<rect fill="none" width="64" height="64"/>
</g>
<g>
	<path fill="#A0ADC4" d="M48.482,50.987c0.006,0,0.01,0,0.014,0C48.488,50.094,48.482,49.779,48.482,50.987z"/>
	<path fill="#A0ADC4" d="M57.783,41.317L40.021,29.381l-4.459,3.024l19.387,13.025c1.508,1.062,1.701,2.532,1.379,3.55
		c-0.773,2.455-3.174,2.008-7.832,2.007c0.004,0.35-36.982-0.007-36.982-0.007c-1,0-3.112,0.124-3.782-2
		c-0.323-1.018-0.142-2.486,1.321-3.518l27.478-18.489c-7.532-5.179-9.973-6.104-9.973-9.448c0-5.567,7.215-6.035,8.588-1.271
		l4.805-1.386c-2.961-10.265-18.396-8.72-18.396,2.656c0,5.63,4.312,8.187,6.074,9.416l-21.397,14.4
		c-2.381,1.678-3.621,4.185-3.699,6.652c-0.128,4.047,2.769,7.986,8.98,7.986l37.015,0.014h4.674
		C61.473,55.994,64.508,46.053,57.783,41.317z M32.073,26.958l-0.018,0.025l-0.006-0.01C32.058,26.967,32.065,26.962,32.073,26.958z
		"/>
</g>
</svg>
