<?xml version="1.0" encoding="utf-8"?>
<!-- Generator: Adobe Illustrator 19.1.0, SVG Export Plug-In . SVG Version: 6.00 Build 0)  -->
<svg version="1.2" baseProfile="tiny" xmlns="http://www.w3.org/2000/svg" xmlns:xlink="http://www.w3.org/1999/xlink" x="0px"
	 y="0px" width="64px" height="64px" viewBox="0 0 64 64" xml:space="preserve">
<g id="_x36_4px_boxes">
	<rect fill="none" width="64" height="64"/>
</g>
<g id="Production">
	<g>
		<path fill="#a0adc4" d="M6.4647,67.0548l0.0212-0.0282l-0.0653-0.0002L6.4647,67.0548z M40.3857,53
			c-10.261,0-17.8424,2.7266-22.3735,4.9719L18,63.6572C21.2427,61.7253,28.9608,58,40.3857,58H62v-5H40.3857z M33.2188,48.2842
			l16.5056-34.6003c0.5537-1.1377,0.1699-2.5098-0.8926-3.1953L35.0535,1.6018c-1.0635-0.6865-2.4717-0.4688-3.2798,0.5039
			L7.4873,31.6875c-0.5425,0.6553-0.7158,1.54-0.4595,2.3506c2.0784,6.5685,2.3855,11.9585,2.2712,15.3743L5.1399,57h8.6482
			l2.1108-2.7897c3.2593-1.6781,8.7855-3.9912,15.2788-4.5297C32.0571,49.6084,32.833,49.0771,33.2188,48.2842z M29.3335,44.8428
			c-4.6934,0.5571-8.838,1.8713-12.082,3.219l-2.9683-1.9146c-0.1501-3.3323-0.6957-7.5122-2.0889-12.3015L34.2068,7.0051
			l10.0508,6.4834L31.5708,40.2479l-11.579-7.3827l-3.1394,3.9292l12.5148,7.9791L29.3335,44.8428z"/>
	</g>
</g>
</svg>
