<?xml version="1.0" encoding="utf-8"?>
<!-- Generator: Adobe Illustrator 16.0.0, SVG Export Plug-In . SVG Version: 6.00 Build 0)  -->
<!DOCTYPE svg PUBLIC "-//W3C//DTD SVG 1.1//EN" "http://www.w3.org/Graphics/SVG/1.1/DTD/svg11.dtd">
<svg version="1.1" id="Layer_1" xmlns="http://www.w3.org/2000/svg" xmlns:xlink="http://www.w3.org/1999/xlink" x="0px" y="0px"
	 width="24px" height="24px" viewBox="0 0 24 24" enable-background="new 0 0 24 24" xml:space="preserve">
<g id="Row_5_1_">
</g>
<g id="Row_4_1_">
</g>
<g id="Row_3_1_">
	<g id="hourly_rate">
		<g>
			<path fill="#263238" d="M15,11h-2V5c0-0.553-0.448-1-1-1s-1,0.447-1,1v7c0,0.553,0.448,1,1,1h3c0.552,0,1-0.447,1-1
				C16,11.447,15.552,11,15,11z M24,12c0-6.627-5.373-12-12-12S0,5.373,0,12s5.373,12,12,12c2.209,0,4-1.343,4-3
				c0,1.657,1.791,3,4,3s4-1.343,4-3v-3v-3c0-0.323-0.086-0.629-0.212-0.921C23.911,13.402,24,12.713,24,12z M14,21
				c0,0.553-0.896,1-2,1c-0.136,0-0.269-0.016-0.403-0.021C10.686,21.887,10,21.482,10,21v-0.425C10.591,20.835,11.266,21,12,21
				c0.734,0,1.409-0.165,2-0.425V21z M12,19c-1.104,0-2-0.447-2-1s0.896-1,2-1c1.104,0,2,0.447,2,1S13.104,19,12,19z M22,21
				c0,0.553-0.896,1-2,1s-2-0.447-2-1v-0.425C18.591,20.835,19.266,21,20,21s1.409-0.165,2-0.425V21z M22,18c0,0.553-0.896,1-2,1
				s-2-0.447-2-1v-0.425C18.591,17.835,19.266,18,20,18s1.409-0.165,2-0.425V18z M20,16c-1.104,0-2-0.447-2-1s0.896-1,2-1
				s2,0.447,2,1S21.104,16,20,16z M22,12.416C21.41,12.158,20.732,12,20,12c-2.209,0-4,1.343-4,3v3c0-1.657-1.791-3-4-3
				s-4,1.343-4,3v3c0,0.061,0.019,0.115,0.023,0.174C4.48,19.636,2,16.107,2,12C2,6.478,6.477,2,12,2c5.523,0,10,4.478,10,10
				C22,12.059,22,12.219,22,12.416z"/>
		</g>
	</g>
</g>
<g id="Row_2_1_">
</g>
<g id="Row_1_1_">
</g>
</svg>
