<?xml version="1.0" encoding="utf-8"?>
<!-- Generator: Adobe Illustrator 19.1.0, SVG Export Plug-In . SVG Version: 6.00 Build 0)  -->
<svg version="1.2" baseProfile="tiny" xmlns="http://www.w3.org/2000/svg" xmlns:xlink="http://www.w3.org/1999/xlink" x="0px"
	 y="0px" width="64px" height="64px" viewBox="0 0 64 64" xml:space="preserve">
<g id="_x36_4px_boxes">
	<rect fill="none" width="64" height="64"/>
</g>
<g id="Production">
	<g>
		<path fill="#a0adc4" d="M38.3274,42.6339c-7.7698-6.2656-14.5525-11.7354-22.5186-18.1594
			c0.1196-0.4725,0.1899-0.9644,0.1899-1.4741c0-3.3168-2.6992-5.9999-6-5.9999c-5.6562,0-8.147,7.1301-3.7651,10.6685
			c1.8145,1.4648,4.3135,1.7574,6.4373,0.6978c7.3818,5.9529,6.9211,5.5815,22.5183,18.1594
			c-0.9778,3.8624,1.9714,7.4739,5.8103,7.4739c3.314,0,6.0002-2.6863,6.0002-5.9999
			C46.9998,43.5643,42.3201,40.6416,38.3274,42.6339z M16.6536,36.717l-6.1843,10.3069c-3.5491-0.2767-6.4707,2.5271-6.4707,5.9761
			C3.9985,56.3137,6.6848,59,9.9988,59c4.918,0,7.7253-5.5976,4.8381-9.538l5.7461-9.5764L16.6536,36.717z M53,24.0004
			c-0.6775,0-1.3264,0.1175-1.9338,0.3244L40.5637,13.2385c1.5894-3.9481-1.3264-8.2379-5.5645-8.2379
			c-4.8398,0-7.6611,5.4385-4.949,9.3897l-6.644,11.0724l3.9294,3.1687l7.002-11.6694c0.8738,0.0961,1.7297,0.0088,2.5947-0.2858
			L47.4358,27.762C45.8462,31.7084,48.761,36.0003,53,36.0003c3.3137,0,6-2.6863,6-5.9999C59,26.6866,56.3137,24.0004,53,24.0004z"
			/>
	</g>
</g>
</svg>
