<?xml version="1.0" encoding="utf-8"?>
<!-- Generator: Adobe Illustrator 19.1.0, SVG Export Plug-In . SVG Version: 6.00 Build 0)  -->
<svg version="1.2" baseProfile="tiny" xmlns="http://www.w3.org/2000/svg" xmlns:xlink="http://www.w3.org/1999/xlink" x="0px"
	 y="0px" width="64px" height="64px" viewBox="0 0 64 64" xml:space="preserve">
<g id="_x36_4px_boxes">
	<rect fill="none" width="64" height="64"/>
</g>
<g id="Production">
	<g>
		<path fill="#a0adc4" d="M48.4559,5H14.4551C10.8708,5,8,7.9028,8,11.4868V50h5V11.4868C13,10.6597,13.6278,10,14.4551,10h34.0009
			C49.2832,10,50,10.6597,50,11.4868V54h-6v-9H19v9c-11,0,0,0-11,0v5h16v-9h15v9h16V11.4868C55,7.9028,52.04,5,48.4559,5z
			 M22.4902,40.0454l4.3038-4.304C28.1831,36.5378,29.7872,37,31.5,37s3.3169-0.4622,4.7059-1.2586l4.3038,4.304l3.5352-3.5352
			l-4.3037-4.304C40.5377,30.8171,41,29.213,41,27.5s-0.4623-3.3171-1.2588-4.7063l4.3037-4.304l-3.5352-3.5352l-4.3038,4.304
			C34.8169,18.4622,33.2128,18,31.5,18s-3.3169,0.4622-4.7059,1.2586l-4.3038-4.304l-3.5352,3.5352l4.3037,4.304
			C22.4623,24.1829,22,25.787,22,27.5s0.4623,3.3171,1.2588,4.7063l-4.3037,4.304L22.4902,40.0454z M31.5,23
			c2.4814,0,4.5,2.0186,4.5,4.5S33.9814,32,31.5,32S27,29.9814,27,27.5S29.0186,23,31.5,23z"/>
	</g>
</g>
</svg>
