<?xml version="1.0" encoding="utf-8"?>
<!-- Generator: Adobe Illustrator 19.1.0, SVG Export Plug-In . SVG Version: 6.00 Build 0)  -->
<svg version="1.2" baseProfile="tiny" xmlns="http://www.w3.org/2000/svg" xmlns:xlink="http://www.w3.org/1999/xlink" x="0px"
	 y="0px" width="64px" height="64px" viewBox="0 0 64 64" xml:space="preserve">
<g id="_x36_4px_boxes">
	<rect fill="none" width="64" height="64"/>
</g>
<g id="Production">
	<g>
		<path fill="#a0adc4" d="M20,32h5v-7h-5V32z M20,44h5v-7h-5V44z M29,44h5v-7h-5V44z M48.4524,13H45V7.4752
			C45,5.5455,43.3818,4,41.4521,4H21.4515C19.5217,4,18,5.5455,18,7.4752V13h-3.5486C12.5216,13,11,14.5454,11,16.4751V60h14v-5h-9
			V18h7V9h17v9h7v37H34v-4h-5v9h23V16.4751C52,14.5454,50.3821,13,48.4524,13z M43,25h-5v7h5V25z M38,44h5v-7h-5V44z M34,25h-5v7h5
			V25z"/>
	</g>
</g>
</svg>
