<?xml version="1.0" encoding="utf-8"?>
<!-- Generator: Adobe Illustrator 19.1.0, SVG Export Plug-In . SVG Version: 6.00 Build 0)  -->
<svg version="1.2" baseProfile="tiny" xmlns="http://www.w3.org/2000/svg" xmlns:xlink="http://www.w3.org/1999/xlink" x="0px"
	 y="0px" width="64px" height="64px" viewBox="0 0 64 64" xml:space="preserve">
<g id="_x36_4px_boxes">
	<rect fill="none" width="64" height="64"/>
</g>
<g id="Production">
	<g>
		<path fill="#a0adc4" d="M50.3855,10.6293c-7.8486-7.8206-18.2729-7.3771-26.2537,0.5806L7.6001,27.6833l3.5645,3.5527
			c16.9935-16.9326,19.6206-20.9975,26.2352-21.2048c8.8971-0.3203,19.8673,12.2144,8.8372,23.2087
			c-18.238,18.1727-19.5914,20.5899-24.4547,20.7318c-2.2024,0.0742-4.2766-0.7969-5.9749-2.4903
			c-3.7268-3.7153-3.332-8.9134,1.0107-13.2429c0,0,7.7542-7.7446,12.0863-12.0639c3.7887-3.7755,9.6781,2.0355,5.8615,5.8408
			L23.3574,43.3857l3.5645,3.5522c11.9625-11.9211,14.327-13.1935,14.1099-18.0799c-0.3358-7.5677-9.7697-12.1325-15.6929-6.2362
			c-4.334,4.3212-12.0883,12.0663-12.0883,12.0663c-10.8381,10.8049-2.3014,24.3112,8.307,24.3112
			c0.1229,0,0.2479-0.002,0.3721-0.0054c3.7715-0.1098,7.4551-1.853,10.6516-5.0414l17.2202-17.1599
			C57.5591,29.064,58.1987,18.4142,50.3855,10.6293z"/>
	</g>
</g>
</svg>
