<?xml version="1.0" encoding="utf-8"?>
<!-- Generator: Adobe Illustrator 19.1.0, SVG Export Plug-In . SVG Version: 6.00 Build 0)  -->
<svg version="1.2" baseProfile="tiny" xmlns="http://www.w3.org/2000/svg" xmlns:xlink="http://www.w3.org/1999/xlink" x="0px"
	 y="0px" width="64px" height="64px" viewBox="0 0 64 64" xml:space="preserve">
<g id="_x36_4px_boxes">
	<rect fill="none" width="64" height="64"/>
</g>
<g id="Production">
	<g>
		<path fill="#a0adc4" d="M52.2061,19.577c5.9557-1.5076,7.6826-6.3346,8.8563-8.851L38.342,0.1348
			c-1.0254,2.1984-3.8086,6.8459-1.0823,12.4847c-0.8167,1.7509-0.4668,0.9971-1.2832,2.7475
			c-2.9912,0.3196-5.8655,1.5323-8.2273,3.6254c-2.6523,2.3503-3.5062,4.5806-4.7227,7.1894l8.042,3.7497
			c1.3452-2.8849,0.7683-1.6481,2.113-4.5315l-3.2412-1.5111c3.1772-3.9493,7.4131-3.6089,9.2605-3.6089
			c1.3689-2.9357,1.4401-3.0883,3.7052-7.9462c-0.8444-1.3232-2.0214-2.8391-1.778-5.3798l12.8999,6.0151
			c-1.764,1.7921-3.8167,1.9064-5.2649,2.0966c-1.1133,2.3875-1.6001,3.4319-1.7959,3.8516
			c0.0068-0.0145,0.0038-0.0081-0.012,0.0256c0.0048-0.0101,0.009-0.0192,0.0117-0.0249c-0.0085,0.0183-0.0178,0.0381-0.0254,0.0541
			c-0.1045,0.2244-0.5371,1.1521-1.8831,4.0388l0.8828,1.0521c0.8857,1.0555,1.5378,2.1013,2,3.5066
			c0.5127,1.5593,0.6292,3.2126,0.3047,4.8543c-0.0123-0.0057-0.0193-0.009-0.0243-0.0114
			c-0.0012-0.0006-0.5963-0.278-11.4152-5.3223c-1.3455,2.8853-0.7681,1.6469-2.113,4.5316l0.021,0.0187
			C32.2777,36.866,30.772,40,28.0178,46c1.0002,0,1.7141,0,2.2207,0c0.8137,0,1.0833,0,1.0754,0c0.5066,0,1.2202,0,2.2206,0
			l5.7408-12.2466L46,36.8663V55H12V19h10.3635c1.3041-2,3.2084-4,5.4338-5H7v46h44V39.1798l1.0493-2.251
			C54.2876,32.1298,54,26.7064,51,22.3965v-0.1699L52.2061,19.577z"/>
	</g>
</g>
</svg>
