<?xml version="1.0" encoding="utf-8"?>
<!-- Generator: Adobe Illustrator 19.1.0, SVG Export Plug-In . SVG Version: 6.00 Build 0)  -->
<svg version="1.2" baseProfile="tiny" xmlns="http://www.w3.org/2000/svg" xmlns:xlink="http://www.w3.org/1999/xlink" x="0px"
	 y="0px" width="64px" height="64px" viewBox="0 0 64 64" xml:space="preserve">
<g id="_x36_4px_boxes">
	<rect fill="none" width="64" height="64"/>
</g>
<g id="Production">
	<g>
		<path fill="#a0adc4" d="M41.3936,26.0459l-2.2246-2.2246l-1.7959,1.7954c-2.6729-1.7759-5.3086-1.6006-7.085,0.1753
			c-1.9717,1.9717-1.4639,4.4697-0.0391,7.2612c1.0156,1.9131,1.2109,2.8501,0.6055,3.4551
			c-0.624,0.6245-1.5811,0.2144-2.5762-0.7808c-1.3271-1.3271-2.1084-2.9673-2.5576-4.2749l-3.3564,2.0698
			c0.3701,1.1509,1.3271,2.8491,2.6348,4.2734l-1.8154,1.8154l2.2256,2.2256l1.9912-1.9907c2.751,1.9321,5.542,1.7168,7.3574-0.0981
			c1.7764-1.7764,1.9912-3.7861,0.333-7.0454c-1.0557-2.2261-1.3477-3.2603-0.8594-3.748c0.4287-0.4297,1.1904-0.4878,2.3418,0.6636
			c1.4834,1.4834,1.9707,2.8687,2.2842,3.6108l3.2197-1.9722c-0.3896-0.9751-1.0352-2.1665-2.3232-3.5718L41.3936,26.0459z
			 M59.8896,3.6851L31.4521,2L1.6538,31.7774l30.5337,30.5327L62,32.5186L59.8896,3.6851z M32.1885,55.2408L8.7261,31.7784
			L33.3984,7.1241l21.8242,1.2934l1.6235,22.1831L32.1885,55.2408z M45.5,14c-2.4854,0-4.5,2.0147-4.5,4.5s2.0146,4.5,4.5,4.5
			s4.5-2.0147,4.5-4.5S47.9854,14,45.5,14z"/>
	</g>
</g>
</svg>
