<?xml version="1.0" encoding="utf-8"?>
<!-- Generator: Adobe Illustrator 19.1.0, SVG Export Plug-In . SVG Version: 6.00 Build 0)  -->
<svg version="1.2" baseProfile="tiny" xmlns="http://www.w3.org/2000/svg" xmlns:xlink="http://www.w3.org/1999/xlink" x="0px"
	 y="0px" width="64px" height="64px" viewBox="0 0 64 64" xml:space="preserve">
<g id="_x36_4px_boxes">
	<rect fill="none" width="64" height="64"/>
</g>
<g id="Production">
	<g>
		<path fill="#a0adc4" d="M30.3522,0.1349c-1.1852,2.5424-4.72,8.7151-0.8843,16.0945l-2.2311,4.7831
			c-7.1134,0.5659-13.2869,4.832-16.3584,11.4178L9.8218,34.696l12.689,5.9166c1.3466-2.8876,0.7668-1.6445,2.113-4.5313
			l-7.9805-3.6955C19.3835,28.3302,23.7974,26,28.8595,26h1.5928l4.6759-10.0525c-1.0277-1.612-3.1566-4.5219-2.123-9.046
			l20.377,9.4954c-2.8005,3.7005-6.4158,3.931-8.2839,4.1765l-4.6763,10.0251l1.0239,1.2194
			c3.2534,3.8779,4.2861,8.7729,2.9404,13.4789L28.249,37.7719c-1.3467,2.8882-0.7668,1.6445-2.113,4.5313l0.0001,0.004L16.022,64
			h5.5168l9.1288-19.5799l16.3145,7.6053l1.0563-2.2666c3.0708-6.5864,2.3706-14.0579-1.7687-19.8708l2.2311-4.7834
			c4.7158-1.0483,8.5696-4.1802,10.7039-8.7573l1.0566-2.2662L30.3522,0.1349z"/>
	</g>
</g>
</svg>
