<?xml version="1.0" encoding="utf-8"?>
<!-- Generator: Adobe Illustrator 19.1.0, SVG Export Plug-In . SVG Version: 6.00 Build 0)  -->
<svg version="1.2" baseProfile="tiny" xmlns="http://www.w3.org/2000/svg" xmlns:xlink="http://www.w3.org/1999/xlink" x="0px"
	 y="0px" width="64px" height="64px" viewBox="0 0 64 64" xml:space="preserve">
<g id="_x36_4px_boxes">
	<rect fill="none" width="64" height="64"/>
</g>
<g id="Production">
	<g>
		<path fill="#a0adc4" d="M48.4414,5h-34.001C10.8564,5,8,7.8912,8,11.4751V50h5V11.4751C13,10.6479,13.6133,10,14.4404,10h34.001
			C49.2686,10,50,10.6479,50,11.4751V54h-6v-9H19v9H8v5h16v-9h15v9h16V11.4751C55,7.8912,52.0255,5,48.4414,5z M34,37v-6.6052
			c1.7795-0.9109,3-2.7584,3-4.8948c0-3.0376-2.4624-5.5-5.5-5.5S26,22.4624,26,25.5c0,2.1364,1.2205,3.9839,3,4.8948V37H34z"/>
	</g>
</g>
</svg>
