<?xml version="1.0" encoding="utf-8"?>
<!-- Generator: Adobe Illustrator 19.1.0, SVG Export Plug-In . SVG Version: 6.00 Build 0)  -->
<svg version="1.2" baseProfile="tiny" xmlns="http://www.w3.org/2000/svg" xmlns:xlink="http://www.w3.org/1999/xlink" x="0px"
	 y="0px" width="64px" height="64px" viewBox="0 0 64 64" xml:space="preserve">
<g id="_x36_4px_boxes">
	<rect fill="none" width="64" height="64"/>
</g>
<g id="Production">
	<g>
		<path fill="#a0adc4" d="M58.0356,16.6934l-55,23l1.9287,4.6133l55-23L58.0356,16.6934z M24.5,26c1.9331,0,3.5-1.567,3.5-3.5
			c0-1.933-1.5669-3.5-3.5-3.5S21,20.567,21,22.5C21,24.433,22.5669,26,24.5,26z M14.5,19c1.9331,0,3.5-1.567,3.5-3.5
			c0-1.933-1.5669-3.5-3.5-3.5S11,13.567,11,15.5C11,17.433,12.5669,19,14.5,19z M40.5,20c1.9331,0,3.5-1.567,3.5-3.5
			c0-1.933-1.5669-3.5-3.5-3.5S37,14.567,37,16.5C37,18.433,38.5669,20,40.5,20z M29.5,16c1.9331,0,3.5-1.567,3.5-3.5
			c0-1.933-1.5669-3.5-3.5-3.5S26,10.567,26,12.5C26,14.433,27.5669,16,29.5,16z M10.5,31c1.9331,0,3.5-1.567,3.5-3.5
			c0-1.933-1.5669-3.5-3.5-3.5S7,25.567,7,27.5C7,29.433,8.5669,31,10.5,31z M45.5,42c-1.9331,0-3.5,1.567-3.5,3.5
			c0,1.933,1.5669,3.5,3.5,3.5s3.5-1.567,3.5-3.5C49,43.567,47.4331,42,45.5,42z M48.5,31c-1.9331,0-3.5,1.567-3.5,3.5
			c0,1.933,1.5669,3.5,3.5,3.5s3.5-1.567,3.5-3.5C52,32.567,50.4331,31,48.5,31z M31.5,48c-1.9331,0-3.5,1.567-3.5,3.5
			c0,1.933,1.5669,3.5,3.5,3.5s3.5-1.567,3.5-3.5C35,49.567,33.4331,48,31.5,48z M19.5,43c-1.9331,0-3.5,1.567-3.5,3.5
			c0,1.933,1.5669,3.5,3.5,3.5s3.5-1.567,3.5-3.5C23,44.567,21.4331,43,19.5,43z M34.5,36c-1.9331,0-3.5,1.567-3.5,3.5
			c0,1.933,1.5669,3.5,3.5,3.5s3.5-1.567,3.5-3.5C38,37.567,36.4331,36,34.5,36z"/>
	</g>
</g>
</svg>
