<?xml version="1.0" encoding="utf-8"?>
<!-- Generator: Adobe Illustrator 16.0.4, SVG Export Plug-In . SVG Version: 6.00 Build 0)  -->
<!DOCTYPE svg PUBLIC "-//W3C//DTD SVG 1.1//EN" "http://www.w3.org/Graphics/SVG/1.1/DTD/svg11.dtd">
<svg version="1.1" id="Capa_1" xmlns="http://www.w3.org/2000/svg" xmlns:xlink="http://www.w3.org/1999/xlink" x="0px" y="0px"
	 width="64px" height="64px" viewBox="0 0 64 64" enable-background="new 0 0 64 64" xml:space="preserve">
<path fill="#A0ADC4" d="M56.843,16.07h-8.912v-2.815c0-6.293-5.12-11.413-11.414-11.413c-1.155,0-2.293,0.172-3.389,0.512
	c-1.094-0.34-2.231-0.512-3.387-0.512c-6.293,0-11.413,5.12-11.413,11.413v2.815H7.157c-1.312,0-2.379,1.067-2.379,2.379v36.812
	c0,3.802,3.094,6.896,6.898,6.896h40.651c3.803,0,6.896-3.094,6.896-6.896V18.449C59.223,17.138,58.155,16.07,56.843,16.07z
	 M43.172,16.07h-2.017v-2.815c0-2.138-0.585-4.187-1.662-5.952c2.18,1.094,3.679,3.351,3.679,5.952V16.07z M36.397,16.07h-6.535
	v-2.815c0-2.395,1.237-4.54,3.266-5.731c2.031,1.191,3.27,3.336,3.27,5.731V16.07z M26.765,7.303
	c-1.077,1.765-1.662,3.813-1.662,5.952v2.815h-2.017v-2.815C23.087,10.654,24.586,8.397,26.765,7.303z M25.104,22.849
	c-1.256,0.063-2.258,1.105-2.258,2.376c0,1.312,1.067,2.38,2.379,2.38h4.517c1.312,0,2.379-1.067,2.379-2.38
	c0-1.271-1.002-2.312-2.258-2.376v-2.02h13.31v2.02c-1.257,0.063-2.26,1.104-2.26,2.376c0,1.312,1.067,2.38,2.38,2.38h4.518
	c1.312,0,2.38-1.067,2.38-2.38c0-1.271-1.003-2.312-2.259-2.376v-2.02h6.534v34.433c0,1.179-0.959,2.138-2.139,2.138H18.232
	c0.223-0.683,0.337-1.401,0.337-2.138V20.829h6.534V22.849z M11.674,22.846c-0.871,0-1.64-0.845-1.969-2.017h3.938
	C13.314,22,12.545,22.846,11.674,22.846z M9.536,27.214c0.682,0.258,1.4,0.391,2.138,0.391c0.737,0,1.456-0.133,2.138-0.391v28.048
	c0,1.178-0.959,2.137-2.138,2.138c-1.179,0-2.138-0.959-2.138-2.138V27.214z"/>
</svg>
