<?xml version="1.0" encoding="utf-8"?>
<!-- Generator: Adobe Illustrator 16.0.4, SVG Export Plug-In . SVG Version: 6.00 Build 0)  -->
<!DOCTYPE svg PUBLIC "-//W3C//DTD SVG 1.1//EN" "http://www.w3.org/Graphics/SVG/1.1/DTD/svg11.dtd">
<svg version="1.1" id="Capa_1" xmlns="http://www.w3.org/2000/svg" xmlns:xlink="http://www.w3.org/1999/xlink" x="0px" y="0px"
	 width="64px" height="64px" viewBox="0 0 64 64" enable-background="new 0 0 64 64" xml:space="preserve">
<path fill="#A0ADC4" d="M6.31,60.653h8.413c0.581,0,1.052-0.472,1.052-1.052V59.2l7.852,3.26c4.279,1.748,9.063,1.802,13.382,0.148
	l16.246-6.194c0.963-0.366,1.736-1.104,2.148-2.048c0.424-0.957,0.447-2.044,0.061-3.019c-0.377-0.971-1.133-1.746-2.094-2.147
	c-0.941-0.399-2.004-0.397-2.943,0.006l-6.818,2.895c0.018-0.128,0.029-0.258,0.035-0.387c0-2.032-1.648-3.681-3.682-3.681h-8.157
	c-0.825-0.001-1.64-0.193-2.378-0.561c-3.412-1.702-7.172-2.59-10.986-2.595h-2.666c0-0.58-0.471-1.052-1.052-1.052H6.31
	c-0.581,0-1.052,0.472-1.052,1.052H0v14.724h5.258C5.258,60.182,5.728,60.653,6.31,60.653L6.31,60.653z M18.44,46.981
	c3.486,0.005,6.926,0.816,10.046,2.372c1.03,0.514,2.167,0.782,3.318,0.783h8.157c0.871,0.006,1.574,0.715,1.566,1.588
	c-0.004,0.729-0.508,1.36-1.219,1.525c-0.139,0.013-0.273,0.041-0.412,0.041H27.342v2.104h12.619c0.021,0,0.041-0.006,0.064-0.006
	c0.834-0.014,1.656-0.188,2.426-0.514l8.793-3.733c0.418-0.178,0.893-0.178,1.312,0c0.434,0.185,0.777,0.538,0.945,0.98
	c0.178,0.45,0.168,0.953-0.029,1.396c-0.186,0.429-0.535,0.766-0.973,0.933l-16.246,6.194c-3.817,1.462-8.047,1.417-11.832-0.127
	l-8.647-3.596v-9.94L18.44,46.981L18.44,46.981z M8.361,47.93h4.309v8.62H8.361V47.93z M12.619,18.588
	c-0.581,0-1.052,0.471-1.052,1.052v6.31c0,0.581,0.471,1.051,1.052,1.051h3.663c0.427,1.802,1.137,3.525,2.104,5.106L15.8,34.692
	c-0.41,0.41-0.41,1.077,0,1.486l4.461,4.463c0.417,0.395,1.07,0.395,1.488,0l2.586-2.587c1.582,0.967,3.306,1.679,5.11,2.109v3.662
	c0,0.581,0.471,1.052,1.052,1.052h6.31c0.58,0,1.051-0.471,1.051-1.052v-3.662c1.803-0.431,3.523-1.143,5.105-2.109l2.586,2.587
	c0.41,0.411,1.076,0.411,1.486,0.001l4.463-4.464c0.41-0.409,0.41-1.076,0-1.486l-2.586-2.586c0.967-1.581,1.68-3.304,2.109-5.106
	h3.662c0.582,0,1.053-0.471,1.053-1.051v-6.31c0-0.581-0.471-1.052-1.053-1.052h-3.662c-0.43-1.802-1.143-3.525-2.109-5.105
	l2.586-2.586c0.41-0.412,0.41-1.076,0-1.486l-4.461-4.462c-0.418-0.394-1.07-0.394-1.488,0l-2.586,2.587
	c-1.58-0.968-3.303-1.679-5.105-2.11V1.762c0-0.581-0.471-1.052-1.051-1.052h-6.31c-0.581,0-1.052,0.471-1.052,1.052v3.663
	c-1.801,0.431-3.524,1.142-5.104,2.11l-2.585-2.587c-0.41-0.411-1.076-0.411-1.487-0.001L15.805,9.41c-0.41,0.41-0.41,1.076,0,1.486
	l2.585,2.586c-0.965,1.58-1.675,3.304-2.103,5.105H12.619z M18.165,19.836 M33.652,29.104c3.484,0,6.309-2.825,6.309-6.31
	c0-3.485-2.824-6.31-6.309-6.31c-3.486,0-6.311,2.825-6.311,6.31C27.345,26.277,30.167,29.101,33.652,29.104L33.652,29.104z
	 M33.652,18.588 M33.652,12.278c5.807,0,10.516,4.708,10.516,10.516c0,5.808-4.709,10.516-10.516,10.516
	c-5.809,0-10.517-4.708-10.517-10.516C23.142,16.989,27.845,12.285,33.652,12.278L33.652,12.278z M33.652,12.278"/>
</svg>
