<?xml version="1.0" encoding="utf-8"?>
<!-- Generator: Adobe Illustrator 16.0.4, SVG Export Plug-In . SVG Version: 6.00 Build 0)  -->
<!DOCTYPE svg PUBLIC "-//W3C//DTD SVG 1.1//EN" "http://www.w3.org/Graphics/SVG/1.1/DTD/svg11.dtd">
<svg version="1.1" id="Capa_1" xmlns="http://www.w3.org/2000/svg" xmlns:xlink="http://www.w3.org/1999/xlink" x="0px" y="0px"
	 width="64px" height="64px" viewBox="0 0 64 64" enable-background="new 0 0 64 64" xml:space="preserve">
<g id="_x36_4px_boxes">
	<rect fill="none" width="64" height="64"/>
</g>
<g id="Production">
	<g>
		<path fill="#A0ADC4" d="M58.945,50.246L54.434,20H46v5h4.124L54,50.984c0.152,1.022-0.135,2.018-0.811,2.801S51.572,55,50.539,55
			H12.461c-1.034,0-1.976-0.432-2.651-1.215S8.847,52.007,9,50.983L12.876,25H21h5v-5v-1v-4.5c0-3.033,2.467-5.5,5.5-5.5
			c3.033,0,5.5,2.467,5.5,5.5V20h-7v5h12v-5v-1v-4.5C42,8.71,37.289,4,31.5,4C25.71,4,21,8.71,21,14.5V20H8.566L4.055,50.246
			c-0.365,2.448,0.352,4.928,1.968,6.803S9.986,60,12.461,60h38.078c2.475,0,4.822-1.076,6.438-2.951
			C58.594,55.174,59.311,52.694,58.945,50.246z M21,31.5c0,1.381,1.12,2.5,2.5,2.5c1.381,0,2.5-1.119,2.5-2.5S24.881,29,23.5,29
			C22.12,29,21,30.119,21,31.5z M37,31.5c0,1.381,1.119,2.5,2.5,2.5s2.5-1.119,2.5-2.5S40.881,29,39.5,29S37,30.119,37,31.5z"/>
	</g>
</g>
</svg>
