<?xml version="1.0" encoding="utf-8"?>
<!-- Generator: Adobe Illustrator 19.1.0, SVG Export Plug-In . SVG Version: 6.00 Build 0)  -->
<svg version="1.2" baseProfile="tiny" xmlns="http://www.w3.org/2000/svg" xmlns:xlink="http://www.w3.org/1999/xlink" x="0px"
	 y="0px" width="64px" height="64px" viewBox="0 0 64 64" xml:space="preserve">
<g id="_x36_4px_boxes">
	<rect fill="none" width="64" height="64"/>
</g>
<g id="Production">
	<g>
		<path fill="#a0adc4" d="M11.0002,24.0001c1.2583,0,2.425-0.3889,3.3899-1.0509l10.627,6.3759
			C25.187,32.4866,27.7969,35,31.0007,35c3.634,0,6.5281-3.2422,5.9133-6.9786L50.437,15.787
			c0.4995,0.1348,1.0222,0.2132,1.5645,0.2132c3.3137,0,6-2.6863,6-5.9999s-2.6863-5.9999-6-5.9999
			c-3.314,0-6.0002,2.6862-6.0002,5.9999c0,0.9095,0.2083,1.7685,0.5706,2.541L34.0706,23.8517
			c-2.3306-1.3926-5.2329-1.0392-7.1677,0.7742l-9.9409-5.9641c0.3945-3.5969-2.4221-6.6616-5.9617-6.6616
			C7.6865,12.0002,5,14.6865,5,18.0002C5,21.3138,7.6865,24.0001,11.0002,24.0001z M24,60h15V41H24V60z M29,46h5v9h-5V46z M5,60h15
			V32H5V60z M10,37h5v18h-5V37z M43,60h15V27H43V60z M48,32h5v23h-5V32z"/>
	</g>
</g>
</svg>
