<?xml version="1.0" encoding="utf-8"?>
<!-- Generator: Adobe Illustrator 19.1.0, SVG Export Plug-In . SVG Version: 6.00 Build 0)  -->
<svg version="1.2" baseProfile="tiny" xmlns="http://www.w3.org/2000/svg" xmlns:xlink="http://www.w3.org/1999/xlink" x="0px"
	 y="0px" width="64px" height="64px" viewBox="0 0 64 64" xml:space="preserve">
<g id="_x36_4px_boxes">
	<rect fill="none" width="64" height="64"/>
</g>
<g id="Production">
	<g>
		<path fill="#a0adc4" d="M53.9999,8c-5.3049,0-7.9751,6.3921-4.3038,10.1752l-8.5847,17.8302
			c-0.9266-0.0165-1.7574,0.1627-2.5453,0.513l-8.8236-7.7851c1.1661-3.8679-1.7389-7.7334-5.7434-7.7334
			c-4.7614,0-7.6078,5.2864-5.0355,9.2557l-8.1494,12.8058c-3.6702-0.5002-6.8157,2.3547-6.8157,5.938
			c0,3.3137,2.6864,5.9999,6.0002,5.9999c4.7622,0,7.6067-5.2871,5.0354-9.2557l8.1494-12.8059
			c1.1736,0.16,2.2542-0.0143,3.2493-0.4568l8.8232,7.7852c-1.1636,3.8595,1.7313,7.7334,5.7435,7.7334
			c5.1021,0,7.8319-5.9581,4.6183-9.8293l8.7588-18.1894C57.5138,19.7855,60,17.1863,60,13.9999C60,10.6863,57.3136,8,53.9999,8z"/>
	</g>
</g>
</svg>
