<?xml version="1.0" encoding="utf-8"?>
<!-- Generator: Adobe Illustrator 16.0.4, SVG Export Plug-In . SVG Version: 6.00 Build 0)  -->
<!DOCTYPE svg PUBLIC "-//W3C//DTD SVG 1.1//EN" "http://www.w3.org/Graphics/SVG/1.1/DTD/svg11.dtd">
<svg version="1.1" id="Capa_1" xmlns="http://www.w3.org/2000/svg" xmlns:xlink="http://www.w3.org/1999/xlink" x="0px" y="0px"
	 width="64px" height="64px" viewBox="0 0 64 64" enable-background="new 0 0 64 64" xml:space="preserve">
<g id="_x36_4px_boxes">
	<rect fill="none" width="64" height="64"/>
</g>
<path fill="#A0ADC4" d="M38.379,43.994l1.209-3.459c0,0-1.186-0.806-2.505-0.451c-0.985,0.265-2.282,2.152-2.282,2.152
	L38.379,43.994z"/>
<path fill="#A0ADC4" d="M44.789,38.384L58.75,38.5c0,0-2.836-10.291-2.836-13.488c0-6.105-5.094-11.262-11.125-11.262
	c-6.03,0-11.125,5.157-11.125,11.262c0,2.807-1.664,13.322-1.664,13.322L44.789,38.384z M44.789,17.64
	c3.848,0,7.223,3.439,7.223,7.361c0,5.411-3.104,9.493-7.223,9.493s-7.223-4.082-7.223-9.493
	C37.566,21.08,40.941,17.64,44.789,17.64z"/>
<path fill="#A0ADC4" d="M42.599,44.122l0.788,1.655L41.27,58h7.445l-2.116-12.223l1.025-1.875c0,0-0.373-2.152-2.707-2.152
	S42.599,44.122,42.599,44.122z"/>
<g>
	<path fill="#A0ADC4" d="M60.746,44.205c-0.934-0.231-4.019-0.859-5.698-1.2c0,0-1.033-2.021-2.215-2.338
		c-1.321-0.354-2.842-0.133-2.842-0.133l2.067,5.908l1.106,0.221c7.217,1.445,8.261,1.268,8.557,3.8
		c0.143,1.229,0.38,4.621,0.561,7.787H64V46.128C63.173,45.196,62.075,44.53,60.746,44.205z"/>
</g>
<g>
	<path fill="#A0ADC4" d="M17.456,38.384c6.342,0,11.125-5.749,11.125-13.372c0-6.105-5.094-11.262-11.125-11.262
		S6.331,18.907,6.331,25.012C6.331,32.635,11.113,38.384,17.456,38.384z M17.456,17.64c3.847,0,7.222,3.439,7.222,7.361
		c0,5.411-3.104,9.493-7.222,9.493c-4.119,0-7.223-4.082-7.223-9.493C10.232,21.08,13.608,17.64,17.456,17.64z"/>
	<polygon fill="#A0ADC4" points="21.044,48.142 17.412,42.401 13.78,48.142 15.806,50.017 13.69,58.25 21.135,58.25 19.019,50.017 	
		"/>
	<path fill="#A0ADC4" d="M38.318,50.005c-0.351-3.002-2.142-5.124-4.906-5.8c-0.934-0.231-4.019-0.859-5.698-1.2l-1.617-4.621
		c-1.038,0.891-2.189,1.616-3.439,2.15l2.067,5.908l1.106,0.221c7.217,1.445,8.261,1.268,8.557,3.8
		c0.143,1.229,0.38,4.621,0.561,7.787h3.964C38.728,55.084,38.477,51.358,38.318,50.005z"/>
	<path fill="#A0ADC4" d="M7.197,43.005c-1.679,0.341-4.762,0.969-5.693,1.199C0.96,44.337,0.465,44.541,0,44.782v12.884
		c0.459-7.404,0.335-9.092,2.449-9.607c0.954-0.235,4.755-1.014,6.632-1.39l1.106-0.224l2.067-5.91
		c-1.25-0.534-2.402-1.261-3.439-2.15L7.197,43.005z"/>
</g>
</svg>
