<?xml version="1.0" encoding="utf-8"?>
<!-- Generator: Adobe Illustrator 19.1.0, SVG Export Plug-In . SVG Version: 6.00 Build 0)  -->
<svg version="1.2" baseProfile="tiny" xmlns="http://www.w3.org/2000/svg" xmlns:xlink="http://www.w3.org/1999/xlink" x="0px"
	 y="0px" width="64px" height="64px" viewBox="0 0 64 64" xml:space="preserve">
<g id="_x36_4px_boxes">
	<rect fill="none" width="64" height="64"/>
</g>
<g id="Production">
	<g>
		<path fill="#a0adc4" d="M6,3v25h15.1846l2.8867-5H11V8h42v15h-5.0918c-0.4785-2-1.3267-2.9514-2.5088-4.1166l1.3071-2.2701
			c0.6904-1.1953,0.2808-2.7275-0.915-3.4179c-1.1973-0.6914-2.7251-0.2817-3.415,0.9136l-1.2974,2.2463
			c-0.8599-0.2405-1.7495-0.3505-2.646-0.3505c-3.543,0-6.8235,1.9146-8.5566,4.9172C28.3738,23.5248,17.377,42.5713,15.501,45.8207
			l-1.9326-1.1159c-0.5771-0.333-0.7642-1.0957-0.416-1.6982l5.4094-9.368l-4.3303-2.4999l-5.4092,9.368
			c-1.7065,2.9556-0.6587,6.851,2.2461,8.5282l2.1963,1.2681c-1.1787,4.1078,0.365,8.8293,4.6292,11.2992
			c4.7859,2.7635,10.8059,1.0288,13.4861-3.6142l15.6748-27.1364C47.5833,29.9362,47.9436,29,48.1533,28H58V3H6z M42.8882,27.9764
			c-0.3247,0.6864,1.0544-1.7464-7.4565,12.9944l-5.4634-3.1547l-2.5,4.33l5.4634,3.1547l-5.8818,10.187
			c-1.2595,2.1819-4.1597,3.2297-6.7346,1.7383c-2.3318-1.3457-3.1301-4.3232-1.7832-6.6552
			c0.28-0.485,15.6411-27.1434,15.9734-27.5944c1.3682-1.8585,4.0217-2.6853,6.4355-1.293
			C43.1353,22.9507,43.9736,25.6791,42.8882,27.9764z"/>
	</g>
</g>
</svg>
