<?xml version="1.0" encoding="utf-8"?>
<!-- Generator: Adobe Illustrator 16.0.4, SVG Export Plug-In . SVG Version: 6.00 Build 0)  -->
<!DOCTYPE svg PUBLIC "-//W3C//DTD SVG 1.1//EN" "http://www.w3.org/Graphics/SVG/1.1/DTD/svg11.dtd">
<svg version="1.1" id="Capa_1" xmlns="http://www.w3.org/2000/svg" xmlns:xlink="http://www.w3.org/1999/xlink" x="0px" y="0px"
	 width="64px" height="64px" viewBox="0 0 64 64" enable-background="new 0 0 64 64" xml:space="preserve">
<g id="_x36_4px_boxes">
	<rect fill="none" width="64" height="64"/>
</g>
<path fill="#A0ADC4" d="M32,38.384c6.342,0,11.125-5.749,11.125-13.372c0-6.105-5.094-11.262-11.125-11.262
	s-11.125,5.157-11.125,11.262C20.875,32.635,25.658,38.384,32,38.384z M32,17.64c3.847,0,7.222,3.439,7.222,7.361
	c0,5.411-3.104,9.493-7.222,9.493c-4.119,0-7.223-4.082-7.223-9.493C24.777,21.08,28.153,17.64,32,17.64z M52.863,50.005
	c-0.351-3.002-2.142-5.124-4.906-5.8c-0.934-0.231-4.019-0.859-5.698-1.2l-1.617-4.621c-1.038,0.891-2.189,1.616-3.439,2.15
	l2.067,5.908l1.106,0.221c7.217,1.445,8.261,1.268,8.557,3.8c0.143,1.229,0.38,4.621,0.561,7.787h3.964
	C53.272,55.084,53.021,51.358,52.863,50.005z M35.589,48.142l-3.632-5.74l-3.632,5.74l2.026,1.875l-2.116,8.233h7.445l-2.116-8.233
	L35.589,48.142z M21.742,43.005c-1.679,0.341-4.762,0.969-5.693,1.199c-2.769,0.677-4.559,2.799-4.911,5.802
	c-0.158,1.353-0.41,5.078-0.594,8.244h3.964c0.506-7.916,0.315-9.662,2.485-10.191c0.954-0.235,4.755-1.014,6.632-1.39l1.106-0.224
	l2.067-5.91c-1.25-0.534-2.402-1.261-3.439-2.15L21.742,43.005z"/>
<g>
	<path fill="#A0ADC4" d="M51.5,24.444c5.174,0,9.074-4.689,9.074-10.907c0-4.979-4.154-9.186-9.074-9.186
		c-4.918,0-9.074,4.206-9.074,9.186c0,0.861,0.082,1.689,0.225,2.484c1.417,1.699,2.446,3.727,2.952,5.932
		C47.167,23.52,49.207,24.444,51.5,24.444z M51.5,7.524c3.139,0,5.892,2.806,5.892,6.004c0,4.414-2.532,7.743-5.892,7.743
		s-5.891-3.329-5.891-7.743C45.609,10.33,48.362,7.524,51.5,7.524z"/>
	<path fill="#A0ADC4" d="M44.992,31.137l0.58-0.117l1.686-4.82c-0.456-0.195-0.894-0.426-1.316-0.682
		C45.894,27.521,45.565,29.409,44.992,31.137z"/>
	<polygon fill="#A0ADC4" points="54.428,32.403 51.465,27.722 48.503,32.403 50.155,33.933 48.43,40.648 54.502,40.648 
		52.775,33.933 	"/>
	<path fill="#A0ADC4" d="M59.868,28.214l-1.319-3.77c-0.847,0.727-1.786,1.318-2.806,1.754l1.687,4.819l0.902,0.18
		c3.011,0.603,4.699,0.86,5.668,1.244v-3.367C62.947,28.84,61.014,28.446,59.868,28.214z"/>
	<polygon fill="#A0ADC4" points="15.928,32.403 12.965,27.722 10.003,32.403 11.655,33.933 9.93,40.648 16.002,40.648 
		14.275,33.933 	"/>
	<path fill="#A0ADC4" d="M4.633,28.214C3.269,28.49,0.768,29,0,29.189v3.488c0.205-0.157,0.452-0.266,0.76-0.341
		c0.778-0.192,3.879-0.827,5.41-1.134l0.902-0.183l1.686-4.82c-1.019-0.436-1.959-1.028-2.805-1.754L4.633,28.214z"/>
	<path fill="#A0ADC4" d="M13,4.352c-4.918,0-9.074,4.206-9.074,9.186c0,6.218,3.901,10.907,9.074,10.907
		c2.005,0,3.814-0.711,5.284-1.936c0.507-2.721,1.816-5.192,3.664-7.15c0.076-0.591,0.126-1.196,0.126-1.821
		C22.074,8.558,17.92,4.352,13,4.352z M13,21.271c-3.359,0-5.891-3.329-5.891-7.743c0-3.198,2.753-6.004,5.891-6.004
		c3.139,0,5.892,2.806,5.892,6.004C18.892,17.942,16.359,21.271,13,21.271z"/>
	<path fill="#A0ADC4" d="M17.243,26.198l1.687,4.819l0.04,0.008c-0.524-1.615-0.83-3.372-0.899-5.227
		C17.8,25.942,17.525,26.078,17.243,26.198z"/>
</g>
</svg>
