<?xml version="1.0" encoding="utf-8"?>
<!-- Generator: Adobe Illustrator 16.0.4, SVG Export Plug-In . SVG Version: 6.00 Build 0)  -->
<!DOCTYPE svg PUBLIC "-//W3C//DTD SVG 1.1//EN" "http://www.w3.org/Graphics/SVG/1.1/DTD/svg11.dtd">
<svg version="1.1" id="Capa_1" xmlns="http://www.w3.org/2000/svg" xmlns:xlink="http://www.w3.org/1999/xlink" x="0px" y="0px"
	 width="20px" height="20px" viewBox="9 9 20 20" enable-background="new 9 9 20 20" xml:space="preserve">
<g>
	<path fill="#CCCCCC" d="M25.12,12.881h-1.36v-1.02c0-0.204-0.135-0.34-0.339-0.34c-0.206,0-0.341,0.136-0.341,0.34v1.02h-8.16
		v-1.02c0-0.204-0.137-0.34-0.341-0.34c-0.205,0-0.341,0.136-0.341,0.34v1.02H12.88c-0.748,0-1.36,0.612-1.36,1.36v2.04v0.679v8.16
		c0,0.748,0.612,1.36,1.36,1.36h12.24c0.748,0,1.36-0.612,1.36-1.36v-8.158v-0.679v-2.041C26.48,13.492,25.868,12.881,25.12,12.881z
		 M25.802,25.12c0,0.374-0.306,0.681-0.68,0.681H12.881c-0.374,0-0.681-0.307-0.681-0.681v-8.159h13.602V25.12L25.802,25.12z
		 M25.802,16.28H12.2v-2.04c0-0.374,0.305-0.679,0.679-0.679h1.36v1.019c0,0.205,0.136,0.341,0.34,0.341
		c0.205,0,0.341-0.136,0.341-0.341v-1.019h8.16v1.019c0,0.205,0.135,0.341,0.341,0.341c0.204,0,0.34-0.136,0.34-0.341v-1.019h1.359
		c0.375,0,0.681,0.305,0.681,0.679V16.28L25.802,16.28z"/>
</g>
</svg>
