<?xml version="1.0" encoding="utf-8"?>
<!-- Generator: Adobe Illustrator 19.1.0, SVG Export Plug-In . SVG Version: 6.00 Build 0)  -->
<svg version="1.2" baseProfile="tiny" xmlns="http://www.w3.org/2000/svg" xmlns:xlink="http://www.w3.org/1999/xlink" x="0px"
	 y="0px" width="64px" height="64px" viewBox="0 0 64 64" xml:space="preserve">
<g id="_x36_4px_boxes">
	<rect fill="none" width="64" height="64"/>
</g>
<g id="Production">
	<g>
		<path fill="#a0adc4" d="M51.8232,34h5.0537C58.4331,18,45.0042,4.5766,29.0076,6.1212c0,9.4608,0,13.1735,0,24.3372
			L15.3477,44.0992c-8.6877-11.0593-4.3459-27.5368,9.6509-32.0331V6.8366C6.0029,11.8324-0.4116,35.7057,13.4346,49.5259
			C18.2581,54.341,24.6433,57,31.4636,57c0,0,0.001,0,0.002,0c6.8196,0,13.2317-2.6542,18.0544-7.4693
			C52.7676,46.2879,55.0273,42,56.1604,38h-5.2383c-0.9939,3-2.6562,5.7122-4.9431,7.9953C42.1021,49.8663,36.9478,52,31.4656,52
			c-0.0005,0-0.0015,0-0.0015,0c-4.6389,0-9.0334-1.5428-12.6282-4.3566L32.5,34H51.8232z M33.9966,11.1663
			C42.9946,12.2961,50.6909,20,51.8235,29H33.9966V11.1663z"/>
	</g>
</g>
</svg>
