<?xml version="1.0" encoding="utf-8"?>
<!-- Generator: Adobe Illustrator 16.0.4, SVG Export Plug-In . SVG Version: 6.00 Build 0)  -->
<!DOCTYPE svg PUBLIC "-//W3C//DTD SVG 1.1//EN" "http://www.w3.org/Graphics/SVG/1.1/DTD/svg11.dtd">
<svg version="1.1" id="Capa_1" xmlns="http://www.w3.org/2000/svg" xmlns:xlink="http://www.w3.org/1999/xlink" x="0px" y="0px"
	 width="104.75px" height="64px" viewBox="0 0 104.75 64" enable-background="new 0 0 104.75 64" xml:space="preserve">
<g>
	<path fill="#A0ADC4" d="M102.23,16.178V2.625H2.52v13.553h3.773v23.565h-3.34v21.632h98.978V39.743h-3.34V16.178H102.23z
		 M5.121,5.227H99.63v8.35H5.121V5.227z M5.555,42.345h7.3v16.429h-7.3V42.345z M89.428,22.716v35.407H72.954V22.716H89.428z
		 M70.354,58.123H44.138V22.716h26.216V58.123z M41.535,58.123H15.456V22.716h26.079V58.123z M99.329,58.773H92.03V42.345h7.299
		V58.773z M95.778,39.743H92.03V20.114H12.854v19.629H9.105V16.178h86.673V39.743z"/>
	<path fill="#A0ADC4" d="M85.868,37.405v-9.713h-9.084v9.713H85.868z M79.387,30.294h3.879v4.51h-3.879V30.294z"/>
	<rect x="82.749" y="40.06" fill="#A0ADC4" width="3.253" height="3.569"/>
	<rect x="47.939" y="51.66" fill="#A0ADC4" width="18.911" height="2.601"/>
	<rect x="18.321" y="51.66" fill="#A0ADC4" width="18.912" height="2.601"/>
</g>
</svg>
