<?xml version="1.0" encoding="utf-8"?>
<!-- Generator: Adobe Illustrator 19.1.0, SVG Export Plug-In . SVG Version: 6.00 Build 0)  -->
<svg version="1.2" baseProfile="tiny" xmlns="http://www.w3.org/2000/svg" xmlns:xlink="http://www.w3.org/1999/xlink" x="0px"
	 y="0px" width="64px" height="64px" viewBox="0 0 64 64" xml:space="preserve">
<g id="_x36_4px_boxes">
	<rect fill="none" width="64" height="64"/>
</g>
<g id="Production">
	<g>
		<path fill="#a0adc4" d="M31,24h5V11c-1.1959,0-2.0696,0-2.7178,0c-1.2147,0-1.5995,0-1.5645,0c-0.6482,0-1.5219,0-2.7178,0v5h2V24
			z M33.5005,33.9996c9.0979,0,16.5005-7.4023,16.5005-16.4998C50.001,8.4022,42.5984,1,33.5005,1S17,8.4022,17,17.4998
			C17,26.5974,24.4026,33.9996,33.5005,33.9996z M33.5005,5.9999c6.3411,0,11.5002,5.1591,11.5002,11.4999
			s-5.1592,11.4999-11.5002,11.4999s-11.5004-5.1591-11.5004-11.4999S27.1594,5.9999,33.5005,5.9999z M59.7397,40.0562
			c-1.7781-2.5139-4.8948-3.3755-7.5698-2.412l-16.0793,5.788c-0.5498-0.3724-11.3276-5.8602-11.9188-6.163
			c-2.7179-1.3936-5.9279-1.6426-8.8254-0.6904L4,40.4053v5.2637l12.9088-4.3403c3.3243-1.0916,4.5184,0.1487,16.2308,6.1513
			c0.7698,0.3945,0.9431,1.4233,0.3115,2.0517c-0.334,0.3359-0.8267,0.4561-1.2769,0.3193L18.723,45.772l-1.4515,4.7851
			l13.4504,4.079c2.2141,0.6722,4.6157,0.0737,6.2646-1.5712c1.4062-1.4033,2.0471-3.3212,1.7817-5.282
			c16.0149-5.7656,15.9523-6.1813,16.8672-4.8702c0.2583,0.3875,0.335,0.7883,0.2451,1.204c-0.2161,1,0.427,0.3159-20.1432,12.5077
			c-3.5597,2.0376-5.8032,1.1051-15.4554-0.5918C17.3824,55.5234,17,55.8546,4,57.9579v5.0648l12.5895-2.0839
			c1.8407-0.2988,2.0448-0.118,12.1302,1.6543c3.2852,0.5791,6.6593,0,9.5374-1.6494l19.458-11.5331
			C60.9789,47.477,61.9127,43.1669,59.7397,40.0562z"/>
	</g>
</g>
</svg>
