<?xml version="1.0" encoding="utf-8"?>
<!-- Generator: Adobe Illustrator 19.1.0, SVG Export Plug-In . SVG Version: 6.00 Build 0)  -->
<svg version="1.2" baseProfile="tiny" xmlns="http://www.w3.org/2000/svg" xmlns:xlink="http://www.w3.org/1999/xlink" x="0px"
	 y="0px" width="64px" height="64px" viewBox="0 0 64 64" xml:space="preserve">
<g id="_x36_4px_boxes">
	<rect fill="none" width="64" height="64"/>
</g>
<g id="Production">
	<g>
		<path fill="#a0adc4" d="M37.8141,57H55v-5H42.0118C40.8823,54,39.4672,56,37.8141,57z M20,40h2v8h5V35h-7V40z M43.8639,48H55v-5
			H44.8617C44.7351,45,44.3975,46,43.8639,48z M39.1321,33.9699C31.2556,18.605,8,24.2287,8,41.4657
			c0,9.0924,7.3909,16.4906,16.4756,16.4906c8.4543,0,15.6277-6.4716,16.3995-14.9915
			C41.157,39.8532,40.5223,36.6819,39.1321,33.9699z M24.4756,52.9576c-6.332,0-11.4829-5.1514-11.4829-11.4826
			c0-6.3312,5.1509-11.4825,11.4829-11.4825c6.3318,0,11.4828,5.1514,11.4828,11.4825
			C35.9584,47.8062,30.8074,52.9576,24.4756,52.9576z M25,21h30v-5H25V21z M25,7v5h30V7H25z M37,25.2637
			C39,26.5931,40.1724,28,41.3972,30H55v-5H37V25.2637z M44.7693,39H55v-5H43.4972C44.1218,36,44.5559,37,44.7693,39z"/>
	</g>
</g>
</svg>
