<?xml version="1.0" encoding="utf-8"?>
<!-- Generator: Adobe Illustrator 19.1.0, SVG Export Plug-In . SVG Version: 6.00 Build 0)  -->
<svg version="1.2" baseProfile="tiny" xmlns="http://www.w3.org/2000/svg" xmlns:xlink="http://www.w3.org/1999/xlink" x="0px"
	 y="0px" width="64px" height="64px" viewBox="0 0 64 64" xml:space="preserve">
<g id="_x36_4px_boxes">
	<rect fill="none" width="64" height="64"/>
</g>
<g id="Production">
	<g>
		<path fill="#a0adc4" d="M56.4199,7H16.4187C12.8347,7,10,9.8926,10,13.4766v7.6842l-9,4.6953v5.6398l9-4.6953v8.1708
			l-3.0945,2.1982c0,0,1.0427,1.476,2.9016,4.0566c1.0005-0.7176,12.9683-9.3653,16.312-11.6785
			c2.2981-1.5962,4.9509,0.9525,3.0703,3.585C27.3455,35.7141,19.179,45.4794,17.896,46.994C15.0886,50.3074,11.9849,52,8.6709,52H1
			c0,1.3352,0,1.8824,0,2.0868c0,0.0826,0,0.1122,0,0.1105C1,54.4375,1,55.1439,1,57h7.6709c4.8518,0,9.239-2.2755,13.0405-6.7617
			C23.1921,48.4896,25.5249,46,27.7388,43h3.8718l-6.7454,11.0164c2.7158,1.6613,1.5505,0.9544,4.2656,2.6152L37.4722,43h4.4673
			l-6.7454,11.0164c2.7166,1.6617,1.55,0.9539,4.2659,2.6152L47.8013,43h8.6187C60.0039,43,63,40.0603,63,36.4764V13.4766
			C63,9.8926,60.0039,7,56.4199,7z M58,17H19v5h39v14.4764C58,37.3035,57.2471,38,56.4199,38H31.7905
			c0.6885-1,1.1487-1.5036,1.4668-1.9492c2.282-3.1943,2.0896-7.1182-0.479-9.7548c-2.6284-2.6992-6.3198-3.0371-9.4668-0.8564
			C22.3496,26.1046,19,28.7191,15,31.377V13.4766C15,12.6495,15.5916,12,16.4187,12h40.0012C57.2471,12,58,12.6495,58,13.4766V17z"
			/>
	</g>
</g>
</svg>
