<?xml version="1.0" encoding="utf-8"?>
<!-- Generator: Adobe Illustrator 19.1.0, SVG Export Plug-In . SVG Version: 6.00 Build 0)  -->
<svg version="1.2" baseProfile="tiny" xmlns="http://www.w3.org/2000/svg" xmlns:xlink="http://www.w3.org/1999/xlink" x="0px"
	 y="0px" width="64px" height="64px" viewBox="0 0 64 64" xml:space="preserve">
<g id="_x36_4px_boxes">
	<rect fill="none" width="64" height="64"/>
</g>
<g id="Production">
	<g>
		<path fill="#a0adc4" d="M37.04,35.9131c-0.6494-0.1904-0.7979-0.1367-1.0703,0.4834c-0.5459,1.2402-1.4346,3.1387-1.8662,4.1025
			c-0.2334,0.5283-0.2422,0.6885,0.168,1.0996l1.4678,1.4678c0,0-0.7871,1.6484-2.4131,3.2734
			c-1.625,1.626-3.2744,2.4131-3.2744,2.4131l-1.4678-1.4677c-0.4102-0.4112-0.5703-0.4014-1.0977-0.168
			c-0.9648,0.4316-2.8633,1.3193-4.1035,1.8633c-0.6211,0.2734-0.6738,0.4238-0.4824,1.0722
			c0.5664,1.9424,2.0879,3.9659,3.8652,3.9473c1.9785-0.0225,5.9102-1.6465,9.2422-4.9785c3.332-3.333,4.9561-7.2637,4.9775-9.2412
			C41.0049,38.002,38.9824,36.4805,37.04,35.9131z M54,18h-5v5h5V18z M56.5,9h-49C3.916,9,1,11.916,1,15.5v20
			C1,39.084,3.916,42,7.5,42H10v-5H7.5C6.6865,37,6,36.3135,6,35.5v-20C6,14.6865,6.6865,14,7.5,14h49c0.8135,0,1.5,0.6865,1.5,1.5
			v20c0,0.8135-0.6865,1.5-1.5,1.5H54v5h2.5c3.584,0,6.5-2.916,6.5-6.5v-20C63,11.916,60.084,9,56.5,9z M14,63h36V27H14V63z M19,32
			h26v26H19V32z"/>
	</g>
</g>
</svg>
