<?xml version="1.0" encoding="utf-8"?>
<!-- Generator: Adobe Illustrator 21.0.2, SVG Export Plug-In . SVG Version: 6.00 Build 0)  -->
<!DOCTYPE svg PUBLIC "-//W3C//DTD SVG 1.1//EN" "http://www.w3.org/Graphics/SVG/1.1/DTD/svg11.dtd">
<svg version="1.1" id="Layer_1" xmlns="http://www.w3.org/2000/svg" xmlns:xlink="http://www.w3.org/1999/xlink" x="0px" y="0px"
	 width="64px" height="64px" viewBox="0 0 64 64" style="enable-background:new 0 0 64 64;" xml:space="preserve">
<style type="text/css">
	.st0{fill:none;}
	.st1{fill:#a0adc4;}
</style>
<g id="box">
	<rect class="st0" width="64" height="64"/>
</g>
<g id="icon">
	<g>
		<path class="st1" d="M16,56h5V36h-5V56z M25,63h5V36h-5V63z M34,63h5V36h-5V63z M43,56h5V36h-5V56z M54,27h-5v5h5V27z M56.5,18H50
			V3H14v15H7.5C3.9,18,1,20.9,1,24.5v20C1,48.1,3.9,51,7.5,51H12v-5H7.5C6.7,46,6,45.3,6,44.5v-20C6,23.7,6.7,23,7.5,23h49
			c0.8,0,1.5,0.7,1.5,1.5v20c0,0.8-0.7,1.5-1.5,1.5H52v5h4.5c3.6,0,6.5-2.9,6.5-6.5v-20C63,20.9,60.1,18,56.5,18z M45,18H19V8h26V18
			z"/>
	</g>
</g>
</svg>
