<?xml version="1.0" encoding="utf-8"?>
<!-- Generator: Adobe Illustrator 19.1.0, SVG Export Plug-In . SVG Version: 6.00 Build 0)  -->
<svg version="1.2" baseProfile="tiny" xmlns="http://www.w3.org/2000/svg" xmlns:xlink="http://www.w3.org/1999/xlink" x="0px"
	 y="0px" width="64px" height="64px" viewBox="0 0 64 64" xml:space="preserve">
<g id="_x36_4px_boxes">
	<rect fill="none" width="64" height="64"/>
</g>
<g id="Production">
	<g>
		<path fill="#a0adc4" d="M23.29,13.9813C21.9583,9.4788,25.356,5,30,5c4.4468,0,7.8542,4.1465,6.8086,8.5994
			c1.6394,0.3334,3.2427,0.8029,4.7952,1.4059C43.606,7.2824,37.7129,0,30,0c-8.0737,0-13.9126,7.8857-11.4297,15.6459
			C20.0723,14.9659,21.6509,14.4083,23.29,13.9813z M62,33.3615c-1-0.361-3.7896-1.2618-6.2271-2.7853
			C58.1777,24.8,57.2742,26.9703,61,18.0201c-5.6941-0.189-11.2178,0.9931-16.1572,3.118c-1.0005-0.5627-2.2354-1.488-4.8691-2.4757
			v-0.0002c-11.4553-4.3615-24.834,0.1378-30.4609,10.2519c-2.6851-0.054-3.4612-3.4076-1.1006-4.6198
			c0.6992-0.3604,1.3486-0.3154,1.7676-0.2163c0.865-3.6519,0.6106-2.5773,1.1523-4.8652
			c-6.2651-1.4852-11.4285,5.0955-8.4805,10.834c0.9907,1.9263,2.6982,3.0677,4.7642,3.618
			c-1.5256,5.9575-0.1599,12.0947,3.5742,16.9822c-0.8657,3.9876-0.9326,4.1263-0.9993,4.907
			c-0.2964,3.4548,2.0051,6.6756,5.4836,7.4308c3.7021,0.8037,5.5886,1.5533,8.2769,0.2056
			c1.4365-0.7202,2.6218-1.9183,3.2881-3.448c1,0.25,4.5435,0.4095,7.52-0.0036c1.1423,2.6263,3.7793,4.2026,6.4094,4.2026
			c1,0,1.3174-0.123,5.157-0.9565c3.8271-0.831,6.1624-4.6111,5.3555-8.3256c-0.001-0.004-0.7688-3.541-0.7688-3.541
			c2.5447-1.9087,6.6338-2.5071,9.3301-3.0764L62,33.3615z M55.7053,43.8766c-5.1006,1.1465-6.7297,2.5161-10.3977,4.9927
			c1.5874,7.3122,1.1428,5.264,1.4873,6.8505c0.2339,1.0777-0.4524,2.1448-1.53,2.3788c-5.8787,1.2761-5.0293,1.694-7.4346-3.834
			c-7.2717,1.0093-6.7119,0.9709-13.6589,0.0009c-2.439,5.5984-1.5952,5.1013-7.4363,3.8332
			c-1.0776-0.234-1.7639-1.3011-1.53-2.3786c0.4275-1.9681,0.9333-4.2994,1.3616-6.272C14.9272,47.3027,12,44.0297,12,38.5
			c0-13.2993,17.4419-21.4163,30.1162-13.1708l2.2437,1.4597c2.4126-1.038,5.1633-2.3198,8.8645-3.1003
			c-2.2329,5.3633-1.157,2.7791-3.7209,8.9379c3.925,2.3752,4.8704,3.0123,7.0706,3.9963L55.7053,43.8766z M45,34
			c-1.6567,0-3,1.3431-3,3s1.3433,3,3,3s3-1.3431,3-3S46.6567,34,45,34z"/>
	</g>
</g>
</svg>
