<?xml version="1.0" encoding="utf-8"?>
<!-- Generator: Adobe Illustrator 19.1.0, SVG Export Plug-In . SVG Version: 6.00 Build 0)  -->
<svg version="1.2" baseProfile="tiny" xmlns="http://www.w3.org/2000/svg" xmlns:xlink="http://www.w3.org/1999/xlink" x="0px"
	 y="0px" width="64px" height="64px" viewBox="0 0 64 64" xml:space="preserve">
<g id="_x36_4px_boxes">
	<rect fill="none" width="64" height="64"/>
</g>
<g id="Production">
	<g>
		<path fill="#a0adc4" d="M34.5161,3C20.3729,3,12.7747,19.8345,22.2483,30.4971c1.2135-2.6109,1.1749-2.528,2.3943-5.1511
			c-5.708-9.733,4.5649-21.0081,14.709-16.2654c5.728,2.6802,8.2156,9.5361,5.5444,15.2827
			c-3.0256,6.5097-11.4241,8.8408-17.3733,4.2509c-0.9205,1.9805-1.0256,2.2065-1.0229,2.201
			c-0.0474,0.1017-0.2651,0.5703-1.1135,2.3955v0.0001L12.4697,61h5.4989l11.9346-25.6766
			c8.0363,2.3678,16.1949-1.7144,19.5095-8.8468C54.48,15.5762,46.5254,3,34.5161,3z"/>
	</g>
</g>
</svg>
