<?xml version="1.0" encoding="utf-8"?>
<!-- Generator: Adobe Illustrator 19.1.0, SVG Export Plug-In . SVG Version: 6.00 Build 0)  -->
<svg version="1.2" baseProfile="tiny" xmlns="http://www.w3.org/2000/svg" xmlns:xlink="http://www.w3.org/1999/xlink" x="0px"
	 y="0px" width="64px" height="64px" viewBox="0 0 64 64" xml:space="preserve">
<g id="_x36_4px_boxes">
	<rect fill="none" width="64" height="64"/>
</g>
<g id="Production">
	<g>
		<path fill="#a0adc4" d="M14,58h36V36H14V58z M19,41h26v12H19V41z M56.5,18H50V3H14v15H7.5C3.916,18,1,20.916,1,24.5v20
			C1,48.084,3.916,51,7.5,51H10v-5H7.5C6.6875,46,6,45.3135,6,44.5v-20C6,23.6865,6.6875,23,7.5,23h49c0.8125,0,1.5,0.6865,1.5,1.5
			v20c0,0.8135-0.6875,1.5-1.5,1.5H54v5h2.5c3.584,0,6.5-2.916,6.5-6.5v-20C63,20.916,60.084,18,56.5,18z M45,18H19V8h26V18z M54,27
			h-5v5h5V27z"/>
	</g>
</g>
</svg>
