<?xml version="1.0" encoding="utf-8"?>
<!-- Generator: Adobe Illustrator 19.1.0, SVG Export Plug-In . SVG Version: 6.00 Build 0)  -->
<svg version="1.2" baseProfile="tiny" xmlns="http://www.w3.org/2000/svg" xmlns:xlink="http://www.w3.org/1999/xlink" x="0px"
	 y="0px" width="64px" height="64px" viewBox="0 0 64 64" xml:space="preserve">
<g id="_x36_4px_boxes">
	<rect fill="none" width="64" height="64"/>
</g>
<g id="Production">
	<g>
		<path fill="#a0adc4" d="M5,10c0,5,0,15.8831,0,26.7966l5-5.0001V15h44v34H10v-4.4901c11-11.1191-0.1326,0.0991,10.9668-10.9999
			l9.0166,8.9999L44,28.5101V36h5V20H33v5h7.3988L29.9504,35.4522l-8.9771-9.006C10.6388,36.7806,11,36.2257,5,42.4528
			c0,3.5728,0,4.9262,0,5.3867c0,0.0002,0,0.0571,0,0.2129C5,48.5352,5,50.0068,5,54h54V10H5z"/>
	</g>
</g>
</svg>
