<?xml version="1.0" encoding="utf-8"?>
<!-- Generator: Adobe Illustrator 19.1.0, SVG Export Plug-In . SVG Version: 6.00 Build 0)  -->
<svg version="1.2" baseProfile="tiny" xmlns="http://www.w3.org/2000/svg" xmlns:xlink="http://www.w3.org/1999/xlink" x="0px"
	 y="0px" width="64px" height="64px" viewBox="0 0 64 64" xml:space="preserve">
<g id="_x36_4px_boxes">
	<rect fill="none" width="64" height="64"/>
</g>
<g id="Production">
	<g>
		<path fill="#565D64" d="M26.6306,40.5773l3.5353,3.5351l12.993-12.9925l-3.5352-3.5352L26.6306,40.5773z M32.9199,20.8812
			l-12.993,12.9926l3.5353,3.535l12.9929-12.9924L32.9199,20.8812z M59.8386,3.6822L31.4003,1.9971L1.6011,31.7742l30.5347,30.5323
			l29.8134-29.7912L59.8386,3.6822z M32.1367,55.2372L8.6736,31.7751L33.3467,7.1211l21.8247,1.2934l1.6238,22.1829L32.1367,55.2372
			z M42.3181,15.3153c-1.7574,1.7573-1.7574,4.6063,0,6.3636c1.7573,1.7574,4.6064,1.7574,6.3644,0
			c1.7574-1.7573,1.7574-4.6063,0-6.3636C46.9246,13.5575,44.0754,13.5575,42.3181,15.3153z"/>
	</g>
</g>
</svg>
